<svg width="20" height="20" viewBox="0 0 20 20" fill="none" xmlns="http://www.w3.org/2000/svg">
<g clip-path="url(#clip0_1050_1071)">
<path d="M4.69215 4.70257C3.28706 6.11065 2.49887 8.01922 2.50098 10.0084C2.50309 11.9977 3.29533 13.9046 4.7034 15.3097C6.11148 16.7147 8.02006 17.5029 10.0093 17.5008C11.9985 17.4987 13.9054 16.7065 15.3105 15.2984M16.7055 13.3901C16.9844 12.8434 17.1954 12.2647 17.3338 11.6667C17.3338 11.4457 17.246 11.2338 17.0897 11.0775C16.9335 10.9212 16.7215 10.8334 16.5005 10.8334H14.1672M10.8338 10.8334C10.3918 10.8334 9.96787 10.6578 9.65531 10.3452C9.34275 10.0327 9.16715 9.60876 9.16715 9.16673M9.16715 5.8334V3.3334C9.1568 3.23467 9.12695 3.13898 9.07933 3.05187C9.03172 2.96477 8.96728 2.88798 8.88977 2.82597C8.81225 2.76396 8.72319 2.71795 8.62776 2.69061C8.53233 2.66328 8.43242 2.65516 8.33382 2.66673C7.73916 2.80426 7.16352 3.01387 6.61965 3.2909" stroke="#3179E5" stroke-width="2" stroke-linecap="round" stroke-linejoin="round"/>
<path d="M12.5 2.91675C13.5581 3.28932 14.5192 3.8945 15.3124 4.68771C16.1056 5.48093 16.7108 6.44198 17.0833 7.50008H13.3333C13.1123 7.50008 12.9004 7.41228 12.7441 7.256C12.5878 7.09972 12.5 6.88776 12.5 6.66675V2.91675Z" stroke="#3179E5" stroke-width="2" stroke-linecap="round" stroke-linejoin="round"/>
<path d="M2.5 2.5L17.5 17.5" stroke="#3179E5" stroke-width="2" stroke-linecap="round" stroke-linejoin="round"/>
</g>
<defs>
<clipPath id="clip0_1050_1071">
<rect width="20" height="20" fill="white"/>
</clipPath>
</defs>
</svg>
