<svg width="382" height="250" viewBox="0 0 382 250" fill="none" xmlns="http://www.w3.org/2000/svg">
<g clip-path="url(#clip0_305_7092)">
<path d="M334.943 167.571C334.573 167.128 334.305 166.609 334.157 166.051C334.009 165.493 333.985 164.909 334.088 164.341C334.19 163.773 334.415 163.234 334.748 162.762C335.08 162.29 335.513 161.897 336.013 161.611L333.43 147.816L340.149 150.641L341.572 163.308C341.998 164.182 342.088 165.181 341.825 166.117C341.563 167.053 340.967 167.861 340.15 168.386C339.333 168.912 338.351 169.119 337.392 168.969C336.432 168.819 335.56 168.321 334.943 167.571Z" fill="#FFB6B6"/>
<path d="M318.977 8.0929H23.9946V148.167H318.977V8.0929Z" fill="#E6E6E6"/>
<path d="M310.543 20.1045H32.4297V136.973H310.543V20.1045Z" fill="white"/>
<path d="M318.852 0H23.8689V12.5407H318.852V0Z" fill="#143362"/>
<path d="M33.1816 8.12506C34.4644 8.12506 35.5043 7.0844 35.5043 5.80069C35.5043 4.51697 34.4644 3.47632 33.1816 3.47632C31.8988 3.47632 30.8589 4.51697 30.8589 5.80069C30.8589 7.0844 31.8988 8.12506 33.1816 8.12506Z" fill="white"/>
<path d="M41.9978 8.12506C43.2806 8.12506 44.3205 7.0844 44.3205 5.80069C44.3205 4.51697 43.2806 3.47632 41.9978 3.47632C40.715 3.47632 39.675 4.51697 39.675 5.80069C39.675 7.0844 40.715 8.12506 41.9978 8.12506Z" fill="white"/>
<path d="M50.8144 8.12506C52.0972 8.12506 53.1371 7.0844 53.1371 5.80069C53.1371 4.51697 52.0972 3.47632 50.8144 3.47632C49.5316 3.47632 48.4917 4.51697 48.4917 5.80069C48.4917 7.0844 49.5316 8.12506 50.8144 8.12506Z" fill="white"/>
<path d="M48.6947 95.2943C48.3722 95.2955 48.0633 95.4245 47.8357 95.6531C47.608 95.8817 47.4802 96.1913 47.4802 96.514C47.4802 96.8367 47.608 97.1463 47.8357 97.3749C48.0633 97.6035 48.3722 97.7325 48.6947 97.7337H115.574C115.896 97.7325 116.205 97.6035 116.433 97.3749C116.661 97.1463 116.788 96.8367 116.788 96.514C116.788 96.1913 116.661 95.8817 116.433 95.6531C116.205 95.4245 115.896 95.2955 115.574 95.2943H48.6947Z" fill="#E6E6E6"/>
<path d="M48.6947 102.613C48.3722 102.614 48.0633 102.743 47.8357 102.972C47.608 103.201 47.4802 103.51 47.4802 103.833C47.4802 104.156 47.608 104.465 47.8357 104.694C48.0633 104.922 48.3722 105.051 48.6947 105.053H82.8379C83.1604 105.051 83.4693 104.922 83.6969 104.694C83.9245 104.465 84.0523 104.156 84.0523 103.833C84.0523 103.51 83.9245 103.201 83.6969 102.972C83.4693 102.743 83.1604 102.614 82.8379 102.613H48.6947Z" fill="#E6E6E6"/>
<path d="M115.658 116.431H90.2528C89.9238 116.43 89.6083 116.299 89.3756 116.067C89.143 115.834 89.0121 115.518 89.0117 115.189V111.115C89.0121 110.786 89.143 110.47 89.3756 110.238C89.6083 110.005 89.9238 109.874 90.2528 109.873H115.658C115.987 109.874 116.302 110.005 116.535 110.238C116.768 110.47 116.899 110.786 116.899 111.115V115.189C116.899 115.518 116.768 115.834 116.535 116.067C116.302 116.299 115.987 116.43 115.658 116.431Z" fill="#143362"/>
<path d="M115.658 74.0137H90.2528C89.9238 74.0134 89.6083 73.8824 89.3756 73.6495C89.143 73.4167 89.0121 73.101 89.0117 72.7717V68.6984C89.0121 68.3691 89.143 68.0534 89.3756 67.8206C89.6083 67.5878 89.9238 67.4568 90.2528 67.4564H115.658C115.987 67.4568 116.302 67.5878 116.535 67.8206C116.768 68.0534 116.899 68.3691 116.899 68.6984V72.7717C116.899 73.101 116.768 73.4167 116.535 73.6495C116.302 73.8824 115.987 74.0134 115.658 74.0137Z" fill="#143362"/>
<path d="M160.437 40.5437C160.015 40.5444 159.611 40.7123 159.314 41.0107C159.016 41.3091 158.849 41.7135 158.849 42.1352C158.849 42.5569 159.016 42.9613 159.314 43.2597C159.611 43.5581 160.015 43.726 160.437 43.7267H293.449C293.871 43.726 294.275 43.5581 294.572 43.2597C294.87 42.9613 295.037 42.5569 295.037 42.1352C295.037 41.7135 294.87 41.3091 294.572 41.0107C294.275 40.7123 293.871 40.5444 293.449 40.5437H160.437Z" fill="#E6E6E6"/>
<path d="M160.437 50.0935C160.015 50.0942 159.611 50.2621 159.314 50.5605C159.016 50.8589 158.849 51.2633 158.849 51.685C158.849 52.1067 159.016 52.5111 159.314 52.8095C159.611 53.1079 160.015 53.2758 160.437 53.2765H250.734C251.156 53.2758 251.559 53.1079 251.857 52.8095C252.155 52.5111 252.322 52.1067 252.322 51.685C252.322 51.2633 252.155 50.8589 251.857 50.5605C251.559 50.2621 251.156 50.0942 250.734 50.0935H160.437Z" fill="#E6E6E6"/>
<path d="M160.437 59.4274C160.015 59.428 159.611 59.596 159.314 59.8944C159.016 60.1928 158.849 60.5972 158.849 61.0189C158.849 61.4405 159.016 61.845 159.314 62.1433C159.611 62.4417 160.015 62.6097 160.437 62.6104H293.449C293.871 62.6097 294.275 62.4417 294.572 62.1433C294.87 61.845 295.037 61.4405 295.037 61.0189C295.037 60.5972 294.87 60.1928 294.572 59.8944C294.275 59.596 293.871 59.428 293.449 59.4274H160.437Z" fill="#E6E6E6"/>
<path d="M160.437 68.9773C160.015 68.978 159.611 69.1459 159.314 69.4443C159.016 69.7427 158.849 70.1471 158.849 70.5688C158.849 70.9905 159.016 71.3949 159.314 71.6933C159.611 71.9917 160.015 72.1596 160.437 72.1603H250.734C251.156 72.1596 251.559 71.9917 251.857 71.6933C252.155 71.3949 252.322 70.9905 252.322 70.5688C252.322 70.1471 252.155 69.7427 251.857 69.4443C251.559 69.1459 251.156 68.978 250.734 68.9773H160.437Z" fill="#E6E6E6"/>
<path d="M293.84 89.632H268.434C268.105 89.6316 267.79 89.5007 267.557 89.2678C267.325 89.035 267.194 88.7193 267.193 88.39V84.3167C267.194 83.9874 267.325 83.6717 267.557 83.4389C267.79 83.206 268.105 83.0751 268.434 83.0747H293.84C294.169 83.0751 294.484 83.206 294.717 83.4389C294.949 83.6717 295.08 83.9874 295.081 84.3167V88.39C295.08 88.7193 294.949 89.035 294.717 89.2678C294.484 89.5007 294.169 89.6316 293.84 89.632Z" fill="#143362"/>
<path d="M77.499 42.2676C77.0477 42.269 76.6825 42.8556 76.6834 43.5778C76.6842 44.2979 77.0489 44.8813 77.499 44.8827H116.032C116.483 44.8813 116.848 44.2947 116.847 43.5726C116.846 42.8524 116.482 42.269 116.032 42.2676H77.499Z" fill="#E4E4E4"/>
<path d="M77.499 49.8447C77.0477 49.8462 76.6825 50.4327 76.6834 51.1549C76.6842 51.875 77.0489 52.4585 77.499 52.4599H116.032C116.483 52.4585 116.848 51.8719 116.847 51.1497C116.846 50.4296 116.482 49.8461 116.032 49.8447H77.499Z" fill="#E4E4E4"/>
<path d="M77.499 57.3302C77.0477 57.3316 76.6825 57.9182 76.6834 58.6404C76.6842 59.3605 77.0489 59.944 77.499 59.9454H94.0796C94.531 59.9439 94.8962 59.3574 94.8953 58.6352C94.8944 57.9151 94.5297 57.3316 94.0796 57.3302H77.499Z" fill="#E4E4E4"/>
<path d="M57.9344 61.4709C63.7092 61.4709 68.3906 56.7862 68.3906 51.0073C68.3906 45.2284 63.7092 40.5437 57.9344 40.5437C52.1596 40.5437 47.4783 45.2284 47.4783 51.0073C47.4783 56.7862 52.1596 61.4709 57.9344 61.4709Z" fill="#E4E4E4"/>
<path d="M274.444 87.5597C274.369 88.1323 274.422 88.7141 274.597 89.2643C274.772 89.8145 275.065 90.3196 275.456 90.7441C275.847 91.1685 276.327 91.5019 276.861 91.7209C277.395 91.9399 277.97 92.0391 278.546 92.0115L283.772 105.036L287.923 99.0409L282.324 87.592C282.214 86.6263 281.753 85.7346 281.029 85.086C280.306 84.4375 279.37 84.077 278.398 84.073C277.427 84.069 276.488 84.4218 275.759 85.0644C275.03 85.707 274.562 86.5948 274.444 87.5597Z" fill="#FFB6B6"/>
<path d="M333.363 244.198H328.552L326.262 225.626L333.364 225.626L333.363 244.198Z" fill="#FFB6B6"/>
<path d="M334.59 248.866L319.076 248.865V248.669C319.076 247.066 319.712 245.529 320.845 244.396C321.977 243.263 323.513 242.626 325.114 242.626H325.115L334.591 242.626L334.59 248.866Z" fill="#2F2E41"/>
<path d="M317.618 244.045L313.031 242.592L316.45 224.194L323.22 226.339L317.618 244.045Z" fill="#FFB6B6"/>
<path d="M317.38 248.866L302.589 244.18L302.648 243.992C303.132 242.465 304.202 241.191 305.623 240.453C307.045 239.715 308.701 239.571 310.228 240.055L319.262 242.917L317.38 248.866Z" fill="#2F2E41"/>
<path d="M311.919 153.427C311.919 153.427 304.78 164.645 307.303 174.657C309.825 184.669 312.573 203.914 312.573 203.914L326.251 236.49L336.448 236.074L326.322 197.666L326.722 171.985C326.722 171.985 333.76 159.712 332.389 155.892C331.019 152.071 311.919 153.427 311.919 153.427Z" fill="#2F2E41"/>
<path d="M335.243 157.438C335.243 157.438 336.121 168.567 333.374 173.28C330.626 177.993 327.699 195.931 327.699 195.931L323.03 231.807L313.358 228.657L321.605 188.462L328.088 156.844L335.243 157.438Z" fill="#2F2E41"/>
<path d="M338.672 103.567L331.126 98.3758L319.642 98.042L315.643 101.966L309.54 105.084L308.975 155.892C308.975 155.892 327.25 164.658 337.082 160.426L341.812 120.848C343.774 112.993 338.672 103.567 338.672 103.567Z" fill="#3F3D56"/>
<path d="M311.073 118.662H290.944L277.719 95.8813L286.318 92.4728L293.601 105.437L304.141 104.482L310.723 104.163C311.777 104.112 312.83 104.293 313.808 104.691C314.786 105.09 315.665 105.698 316.384 106.472C317.102 107.246 317.643 108.168 317.968 109.174C318.294 110.179 318.396 111.243 318.267 112.292C318.05 114.049 317.198 115.666 315.874 116.839C314.549 118.011 312.842 118.66 311.073 118.662Z" fill="#3F3D56"/>
<path d="M326.32 93.8581C331.819 93.8581 336.277 89.397 336.277 83.894C336.277 78.391 331.819 73.9299 326.32 73.9299C320.821 73.9299 316.363 78.391 316.363 83.894C316.363 89.397 320.821 93.8581 326.32 93.8581Z" fill="#FFB6B6"/>
<path d="M338.317 81.6269C338.012 79.4394 336.531 77.3623 334.426 76.6996C333.589 74.269 331.374 72.4796 328.926 71.6996C326.66 70.9763 324.217 71.0265 321.982 71.8423C319.747 72.6581 317.846 74.1932 316.576 76.207C316.389 76.5017 315.813 77.2258 315.829 77.5775C315.85 78.0242 316.533 78.4854 316.876 78.767C317.726 79.4246 318.643 79.9909 319.611 80.4567C323.192 82.3143 322 85.2336 321.951 88.5416C321.928 90.1492 322.464 91.5218 323.834 92.4401C325.811 93.7653 328.64 93.238 330.791 92.7062C333.232 92.1026 335.261 89.9569 336.653 87.8881C337.886 86.0558 338.623 83.8144 338.317 81.6269Z" fill="#2F2E41"/>
<path d="M338.387 116.539L342.261 159.067L329.813 158.399L338.387 116.539Z" fill="#3F3D56"/>
<path d="M381.279 250H228.885C228.761 250 228.643 249.95 228.555 249.863C228.468 249.775 228.419 249.656 228.419 249.532C228.419 249.409 228.468 249.29 228.555 249.202C228.643 249.114 228.761 249.065 228.885 249.065H381.279C381.403 249.065 381.521 249.114 381.609 249.202C381.697 249.289 381.746 249.408 381.746 249.532C381.746 249.656 381.697 249.775 381.609 249.863C381.521 249.951 381.403 250 381.279 250Z" fill="#CACACA"/>
<path d="M33.0025 245.338H36.7345L38.51 230.932H33.0017L33.0025 245.338Z" fill="#9E616A"/>
<path d="M32.0503 244.118L39.4002 244.118C40.6425 244.118 41.8341 244.612 42.7125 245.491C43.5909 246.37 44.0844 247.562 44.0845 248.805V248.957L32.0505 248.958L32.0503 244.118Z" fill="#2F2E41"/>
<path d="M67.4022 245.338H71.1342L72.9097 230.932H67.4014L67.4022 245.338Z" fill="#9E616A"/>
<path d="M66.45 244.118L73.7999 244.118C75.0421 244.118 76.2338 244.612 77.1121 245.491C77.9905 246.37 78.4841 247.562 78.4842 248.805V248.957L66.4502 248.958L66.45 244.118Z" fill="#2F2E41"/>
<path d="M62.8958 129.606L65.331 145.142L42.1953 145.447L45.2393 130.52L62.8958 129.606Z" fill="#9E616A"/>
<path d="M64.6597 141.349L72.0284 160.984L72.9417 242.353H66.701L51.7844 176.977L38.0855 240.646H31.9971L36.259 169.057C36.259 169.057 35.0022 154.688 41.4341 146.209L42.9997 141.682L64.6597 141.349Z" fill="#2F2E41"/>
<path d="M33.0522 156.655C33.6963 156.48 34.2942 156.165 34.8036 155.733C35.313 155.301 35.7216 154.762 36.0006 154.155C36.2796 153.548 36.4222 152.888 36.4183 152.219C36.4145 151.551 36.2643 150.892 35.9783 150.288L45.8207 118.177L38.5813 116.741L29.5794 148.217C28.5977 148.765 27.8509 149.654 27.4806 150.716C27.1104 151.778 27.1423 152.939 27.5703 153.98C27.9984 155.02 28.7929 155.867 29.8032 156.36C30.8135 156.853 31.9695 156.958 33.0522 156.655Z" fill="#9E616A"/>
<path d="M46.0331 138.187C45.8981 138.187 45.7633 138.173 45.6309 138.147C45.1854 138.058 44.7813 137.825 44.4804 137.484C44.1795 137.144 43.9983 136.714 43.9644 136.261C43.7355 133.125 42.6016 127.667 40.5941 120.038C39.9164 117.445 40.0665 114.705 41.0233 112.202C41.9802 109.699 43.6958 107.558 45.9297 106.08C48.1636 104.601 50.8038 103.86 53.4802 103.958C56.1566 104.057 58.7349 104.992 60.8539 106.631C62.2106 107.671 63.3429 108.975 64.1827 110.464C65.0224 111.954 65.5522 113.598 65.7402 115.298C66.738 124.091 64.8569 132.919 64.002 136.306C63.8896 136.749 63.6355 137.142 63.2786 137.426C62.9216 137.709 62.4815 137.868 62.0257 137.878L46.0775 138.186C46.0627 138.187 46.048 138.187 46.0331 138.187Z" fill="#3F3D56"/>
<path d="M90.5894 109.98C90.4936 110.195 90.4149 110.417 90.354 110.645L70.3914 117.433L66.534 114.061L60.6875 119.221L66.9365 125.855C67.4413 126.391 68.1062 126.749 68.8314 126.874C69.5567 127 70.303 126.887 70.9584 126.552L92.3197 115.632C93.0922 116.107 93.9906 116.334 94.8955 116.285C95.8004 116.236 96.6689 115.912 97.3854 115.357C98.1019 114.801 98.6325 114.041 98.9067 113.177C99.1808 112.312 99.1855 111.385 98.92 110.518C98.6546 109.651 98.1317 108.885 97.4208 108.322C96.7099 107.76 95.8447 107.427 94.9403 107.369C94.036 107.311 93.1353 107.529 92.3581 107.996C91.5809 108.462 90.964 109.154 90.5894 109.98Z" fill="#9E616A"/>
<path d="M69.6955 117.804L62.4183 124.165C62.2112 124.346 61.9676 124.48 61.704 124.558C61.4405 124.636 61.1632 124.657 60.891 124.618C60.6188 124.579 60.3581 124.483 60.1267 124.334C59.8953 124.185 59.6987 123.989 59.5501 123.757L54.3449 115.646C53.4246 114.581 52.9641 113.194 53.0646 111.789C53.1651 110.385 53.8182 109.077 54.8807 108.154C55.9433 107.231 57.3284 106.767 58.7322 106.865C60.1359 106.962 61.4437 107.613 62.3685 108.674L69.678 114.905C69.8872 115.083 70.0556 115.305 70.1715 115.554C70.2875 115.804 70.3484 116.075 70.3501 116.35C70.3517 116.626 70.2941 116.898 70.1812 117.149C70.0682 117.399 69.9026 117.623 69.6955 117.804Z" fill="#3F3D56"/>
<path d="M44.6708 126.399L35.6777 122.863C35.4218 122.763 35.1906 122.608 34.9998 122.41C34.809 122.212 34.6631 121.975 34.5721 121.715C34.481 121.456 34.447 121.18 34.4722 120.906C34.4974 120.632 34.5813 120.366 34.7183 120.128L39.5165 111.769C40.0381 110.462 41.0565 109.415 42.3484 108.858C43.6403 108.301 45.1002 108.279 46.4079 108.798C47.7157 109.316 48.7646 110.333 49.3246 111.624C49.8846 112.915 49.91 114.376 49.3953 115.686L47.2342 125.048C47.1722 125.316 47.0533 125.568 46.8854 125.786C46.7176 126.004 46.5047 126.183 46.2615 126.311C46.0182 126.439 45.7502 126.513 45.4757 126.528C45.2012 126.544 44.9267 126.499 44.6708 126.399Z" fill="#3F3D56"/>
<path d="M51.3372 101.979C56.7398 101.979 61.1195 97.5964 61.1195 92.1899C61.1195 86.7834 56.7398 82.4006 51.3372 82.4006C45.9346 82.4006 41.5549 86.7834 41.5549 92.1899C41.5549 97.5964 45.9346 101.979 51.3372 101.979Z" fill="#9E616A"/>
<path d="M152.861 250H0.467418C0.343715 250 0.225201 249.95 0.137856 249.863C0.0505107 249.775 0.00146484 249.656 0.00146484 249.532C0.00146484 249.409 0.0505107 249.29 0.137856 249.202C0.225201 249.114 0.343715 249.065 0.467418 249.065H152.861C152.985 249.065 153.103 249.114 153.191 249.202C153.278 249.29 153.327 249.409 153.327 249.532C153.327 249.656 153.278 249.775 153.191 249.863C153.103 249.95 152.985 250 152.861 250Z" fill="#CACACA"/>
<path d="M58.0668 88.2547C60.1656 88.2429 62.2644 88.2311 64.3632 88.2192C64.5125 86.7878 63.8759 85.3637 62.9483 84.2639C61.9708 83.2057 60.856 82.2834 59.6336 81.5216C58.4297 80.6949 57.1826 79.8493 55.7514 79.5604C54.5518 79.3182 53.3119 79.4862 52.1 79.6549C50.4928 79.8785 48.8856 80.1022 47.2785 80.3258C45.5143 80.5713 43.6684 80.849 42.2356 81.9078C40.2977 83.3396 39.5565 85.8485 38.9339 88.177L35.4873 101.065L55.845 103.202C56.5814 103.329 57.3357 103.307 58.0635 103.138C58.426 103.047 58.7537 102.851 59.0059 102.575C59.2581 102.299 59.4238 101.955 59.4822 101.585C59.5409 100.755 58.8822 100.075 58.3473 99.4364C57.0714 97.8544 56.3056 95.9219 56.1511 93.8947C55.9966 91.8675 56.4607 89.8412 57.4821 88.0838L58.0668 88.2547Z" fill="#2F2E41"/>
</g>
<defs>
<clipPath id="clip0_305_7092">
<rect width="381.746" height="250" fill="white"/>
</clipPath>
</defs>
</svg>
