<svg width="20" height="20" viewBox="0 0 20 20" fill="none" xmlns="http://www.w3.org/2000/svg">
<g clip-path="url(#clip0_1050_1058)">
<path d="M3.33301 5C3.33301 6.38083 6.31801 7.5 9.99967 7.5C13.6813 7.5 16.6663 6.38083 16.6663 5C16.6663 3.61917 13.6813 2.5 9.99967 2.5C6.31801 2.5 3.33301 3.61917 3.33301 5Z" stroke="#FFAE1F" stroke-width="2" stroke-linecap="round" stroke-linejoin="round"/>
<path d="M3.33301 5V10C3.33301 11.3808 6.31801 12.5 9.99967 12.5C10.1747 12.5 10.3497 12.4975 10.5213 12.4917" stroke="#FFAE1F" stroke-width="2" stroke-linecap="round" stroke-linejoin="round"/>
<path d="M16.667 9.58333V5" stroke="#FFAE1F" stroke-width="2" stroke-linecap="round" stroke-linejoin="round"/>
<path d="M3.33301 10V15C3.33301 16.3808 6.31801 17.5 9.99967 17.5" stroke="#FFAE1F" stroke-width="2" stroke-linecap="round" stroke-linejoin="round"/>
<path d="M14.168 15.8334C14.168 16.2754 14.3436 16.6994 14.6561 17.0119C14.9687 17.3245 15.3926 17.5001 15.8346 17.5001C16.2767 17.5001 16.7006 17.3245 17.0131 17.0119C17.3257 16.6994 17.5013 16.2754 17.5013 15.8334C17.5013 15.3914 17.3257 14.9675 17.0131 14.6549C16.7006 14.3423 16.2767 14.1667 15.8346 14.1667C15.3926 14.1667 14.9687 14.3423 14.6561 14.6549C14.3436 14.9675 14.168 15.3914 14.168 15.8334Z" stroke="#FFAE1F" stroke-width="2" stroke-linecap="round" stroke-linejoin="round"/>
<path d="M15.834 12.9167V14.1667" stroke="#FFAE1F" stroke-width="2" stroke-linecap="round" stroke-linejoin="round"/>
<path d="M15.834 17.5V18.75" stroke="#FFAE1F" stroke-width="2" stroke-linecap="round" stroke-linejoin="round"/>
<path d="M18.3598 14.375L17.2773 15" stroke="#FFAE1F" stroke-width="2" stroke-linecap="round" stroke-linejoin="round"/>
<path d="M14.3919 16.6667L13.3086 17.2917" stroke="#FFAE1F" stroke-width="2" stroke-linecap="round" stroke-linejoin="round"/>
<path d="M13.3086 14.375L14.3919 15" stroke="#FFAE1F" stroke-width="2" stroke-linecap="round" stroke-linejoin="round"/>
<path d="M17.2773 16.6667L18.3607 17.2917" stroke="#FFAE1F" stroke-width="2" stroke-linecap="round" stroke-linejoin="round"/>
</g>
<defs>
<clipPath id="clip0_1050_1058">
<rect width="20" height="20" fill="white"/>
</clipPath>
</defs>
</svg>
