<svg width="18" height="18" viewBox="0 0 18 18" fill="none" xmlns="http://www.w3.org/2000/svg">
<g clip-path="url(#clip0_945_1369)">
<path d="M4.5 3H12L15 6V13.5C15 13.8978 14.842 14.2794 14.5607 14.5607C14.2794 14.842 13.8978 15 13.5 15H4.5C4.10218 15 3.72064 14.842 3.43934 14.5607C3.15804 14.2794 3 13.8978 3 13.5V4.5C3 4.10218 3.15804 3.72064 3.43934 3.43934C3.72064 3.15804 4.10218 3 4.5 3Z" stroke="#34A135" stroke-width="1.5" stroke-linecap="round" stroke-linejoin="round"/>
<path d="M7.5 10.5C7.5 10.8978 7.65804 11.2794 7.93934 11.5607C8.22064 11.842 8.60218 12 9 12C9.39782 12 9.77936 11.842 10.0607 11.5607C10.342 11.2794 10.5 10.8978 10.5 10.5C10.5 10.1022 10.342 9.72064 10.0607 9.43934C9.77936 9.15804 9.39782 9 9 9C8.60218 9 8.22064 9.15804 7.93934 9.43934C7.65804 9.72064 7.5 10.1022 7.5 10.5Z" stroke="#34A135" stroke-width="1.5" stroke-linecap="round" stroke-linejoin="round"/>
<path d="M10.5 3V6H6V3" stroke="#34A135" stroke-width="1.5" stroke-linecap="round" stroke-linejoin="round"/>
</g>
<defs>
<clipPath id="clip0_945_1369">
<rect width="18" height="18" fill="white"/>
</clipPath>
</defs>
</svg>
