<svg width="35" height="35" viewBox="0 0 35 35" fill="none" xmlns="http://www.w3.org/2000/svg">
<g clip-path="url(#clip0_200_93)">
<path d="M12.4833 5.38125C10.8909 6.0404 9.44395 7.0067 8.22498 8.225" stroke="#FA896B" stroke-width="2" stroke-linecap="round" stroke-linejoin="round"/>
<path d="M5.38125 12.4833C4.71998 14.0733 4.37807 15.778 4.375 17.5" stroke="#FA896B" stroke-width="2" stroke-linecap="round" stroke-linejoin="round"/>
<path d="M5.38123 22.5167C6.04037 24.109 7.00668 25.556 8.22498 26.775" stroke="#FA896B" stroke-width="2" stroke-linecap="round" stroke-linejoin="round"/>
<path d="M12.4833 29.6187C14.0733 30.28 15.7779 30.6219 17.4999 30.625" stroke="#FA896B" stroke-width="2" stroke-linecap="round" stroke-linejoin="round"/>
<path d="M22.5167 29.6187C24.1091 28.9596 25.5561 27.9933 26.7751 26.775" stroke="#FA896B" stroke-width="2" stroke-linecap="round" stroke-linejoin="round"/>
<path d="M29.6188 22.5167C30.28 20.9266 30.622 19.222 30.625 17.5" stroke="#FA896B" stroke-width="2" stroke-linecap="round" stroke-linejoin="round"/>
<path d="M29.6188 12.4833C28.9596 10.891 27.9933 9.44397 26.775 8.225" stroke="#FA896B" stroke-width="2" stroke-linecap="round" stroke-linejoin="round"/>
<path d="M22.5167 5.38125C20.9266 4.71998 19.222 4.37807 17.5 4.375" stroke="#FA896B" stroke-width="2" stroke-linecap="round" stroke-linejoin="round"/>
<path d="M20.4167 20.4167L14.5834 14.5833" stroke="#FA896B" stroke-width="2" stroke-linecap="round" stroke-linejoin="round"/>
<path d="M14.5834 20.4167L20.4167 14.5833" stroke="#FA896B" stroke-width="2" stroke-linecap="round" stroke-linejoin="round"/>
</g>
<defs>
<clipPath id="clip0_200_93">
<rect width="35" height="35" fill="white"/>
</clipPath>
</defs>
</svg>
