<svg width="18" height="18" viewBox="0 0 18 18" fill="none" xmlns="http://www.w3.org/2000/svg">
<g clip-path="url(#clip0_402_11794)">
<path d="M9 6V9L10.5 10.5" stroke="#0B2046" stroke-width="1.5" stroke-linecap="round" stroke-linejoin="round"/>
<path d="M2.28748 8.25005C2.45554 6.60009 3.22517 5.06976 4.44953 3.95103C5.67388 2.83229 7.26725 2.20346 8.92563 2.18452C10.584 2.16558 12.1913 2.75785 13.4409 3.84833C14.6905 4.93881 15.4949 6.45116 15.7006 8.09685C15.9063 9.74254 15.499 11.4064 14.5562 12.7709C13.6135 14.1354 12.2015 15.1051 10.5894 15.4949C8.97741 15.8848 7.27828 15.6675 5.81622 14.8846C4.35416 14.1017 3.23152 12.8079 2.66248 11.2501M2.28748 15.0001V11.2501H6.03748" stroke="#0B2046" stroke-width="1.5" stroke-linecap="round" stroke-linejoin="round"/>
</g>
<defs>
<clipPath id="clip0_402_11794">
<rect width="18" height="18" fill="white"/>
</clipPath>
</defs>
</svg>
