<svg width="35" height="35" viewBox="0 0 35 35" fill="none" xmlns="http://www.w3.org/2000/svg">
<g clip-path="url(#clip0_200_38)">
<path d="M14.5833 30.2998C13.314 30.0119 12.095 29.5355 10.9667 28.8867" stroke="#3179E5" stroke-width="2" stroke-linecap="round" stroke-linejoin="round"/>
<path d="M20.4167 4.70021C23.3161 5.3624 25.9048 6.98934 27.7589 9.31468C29.613 11.64 30.6227 14.526 30.6227 17.5C30.6227 20.4741 29.613 23.36 27.7589 25.6853C25.9048 28.0107 23.3161 29.6376 20.4167 30.2998" stroke="#3179E5" stroke-width="2" stroke-linecap="round" stroke-linejoin="round"/>
<path d="M6.67768 24.9273C5.88217 23.7715 5.27797 22.4952 4.88831 21.1473" stroke="#3179E5" stroke-width="2" stroke-linecap="round" stroke-linejoin="round"/>
<path d="M4.55585 15.3125C4.78918 13.9271 5.23835 12.6146 5.86835 11.4115L6.11481 10.9667" stroke="#3179E5" stroke-width="2" stroke-linecap="round" stroke-linejoin="round"/>
<path d="M10.0727 6.67771C11.4372 5.7384 12.968 5.0673 14.5833 4.70021" stroke="#3179E5" stroke-width="2" stroke-linecap="round" stroke-linejoin="round"/>
<path d="M13.125 17.5L16.0417 20.4167L21.875 14.5833" stroke="#3179E5" stroke-width="2" stroke-linecap="round" stroke-linejoin="round"/>
</g>
<defs>
<clipPath id="clip0_200_38">
<rect width="35" height="35" fill="white"/>
</clipPath>
</defs>
</svg>
