<svg width="25" height="30" viewBox="0 0 25 30" fill="none" xmlns="http://www.w3.org/2000/svg">
<path d="M9.64637 8.13583C12.7648 8.13583 15.2927 7.43385 15.2927 6.56791C15.2927 5.70198 12.7648 5 9.64637 5C6.52797 5 4 5.70198 4 6.56791C4 7.43385 6.52797 8.13583 9.64637 8.13583Z" stroke="#FFAE1F" stroke-miterlimit="10"/>
<path d="M4 6.56787V16.3634C4.70877 17.0295 5.65027 17.3697 6.63375 17.3697" stroke="#FFAE1F" stroke-miterlimit="10"/>
<path d="M4 13.1367C4.70877 13.8028 5.65027 14.143 6.63375 14.143" stroke="#FFAE1F" stroke-miterlimit="10"/>
<path d="M4 9.99854C4.70877 10.6646 5.65027 11.0048 6.63375 11.0048" stroke="#FFAE1F" stroke-miterlimit="10"/>
<path d="M15.293 8.24499V6.56787" stroke="#FFAE1F" stroke-miterlimit="10"/>
<path d="M16.6119 11.6305C16.767 11.6305 16.9103 11.65 17.0575 11.7962L17.456 12.1921C17.9114 12.6445 18.5033 12.6143 18.9283 12.1921L20.3966 10.4214L19.2895 9.32149C18.9715 9.00557 18.6417 8.81445 18.3907 8.81445H16.6633H16.6119H14.8844C14.5821 8.81445 14.2523 9.00557 13.9343 9.32149L12.8271 10.4214L14.2955 12.1921C14.7205 12.6143 15.3124 12.6445 15.7678 12.1921L16.1663 11.7962C16.3135 11.65 16.4568 11.6305 16.6119 11.6305Z" stroke="#FFAE1F" stroke-miterlimit="10"/>
<path d="M8.77539 13.6509H12.4502" stroke="#FFAE1F" stroke-miterlimit="10"/>
<path d="M13.3848 13.6509H17.0596" stroke="#FFAE1F" stroke-miterlimit="10"/>
<path d="M8.77539 15.2969H12.4502" stroke="#FFAE1F" stroke-miterlimit="10"/>
<path d="M13.3848 15.2969H17.0596" stroke="#FFAE1F" stroke-miterlimit="10"/>
<path d="M8.77539 16.9426H12.4502" stroke="#FFAE1F" stroke-miterlimit="10"/>
<path d="M13.3848 16.9426H17.0596" stroke="#FFAE1F" stroke-miterlimit="10"/>
<path d="M8.77539 18.5886H12.4502" stroke="#FFAE1F" stroke-miterlimit="10"/>
<path d="M13.3848 18.5886H17.0596" stroke="#FFAE1F" stroke-miterlimit="10"/>
<path d="M8.77539 20.2346H12.4502" stroke="#FFAE1F" stroke-miterlimit="10"/>
<path d="M13.3848 20.2346H17.0596" stroke="#FFAE1F" stroke-miterlimit="10"/>
<path d="M8.77539 21.8804H12.4502" stroke="#FFAE1F" stroke-miterlimit="10"/>
<path d="M13.3848 21.8804H17.0596" stroke="#FFAE1F" stroke-miterlimit="10"/>
<path d="M12.4504 9.80518H7.58203V23.3548H18.3003V13.2218" stroke="#FFAE1F" stroke-miterlimit="10"/>
<path d="M7.60547 24.4897H18.3001" stroke="#FFAE1F" stroke-miterlimit="10"/>
<path d="M14.5 10.5621C14.9764 11.1341 15.4841 11.1341 16.0233 10.5621V10.5111C15.4841 9.93902 14.9764 9.93902 14.5 10.5111V10.5621Z" stroke="#FFAE1F" stroke-miterlimit="10"/>
<path d="M17.3008 10.5621C17.7771 11.1341 18.2849 11.1341 18.8241 10.5621V10.5111C18.2849 9.93902 17.7771 9.93902 17.3008 10.5111V10.5621Z" stroke="#FFAE1F" stroke-miterlimit="10"/>
</svg>
