<svg width="173" height="42" viewBox="0 0 173 42" fill="none" xmlns="http://www.w3.org/2000/svg">
<g clip-path="url(#clip0_1132_13310)">
<path fill-rule="evenodd" clip-rule="evenodd" d="M6.67358 7.01398H35.0471L27.1423 14.952L14.5784 14.91L14.5505 35H6.67358V7.01398Z" fill="#3F87FF"/>
<path fill-rule="evenodd" clip-rule="evenodd" d="M22.1335 14.938L35.0472 7.01398L27.1423 14.952L24.1902 14.938H22.1335Z" fill="#4C7BF9"/>
<path fill-rule="evenodd" clip-rule="evenodd" d="M6.67358 27.3L14.5645 23.254L6.67358 29.848V27.3Z" fill="#4C7BF9"/>
<path fill-rule="evenodd" clip-rule="evenodd" d="M39.5662 7.01398H47.4291V33.74L39.5662 35V7.01398Z" fill="#3F87FF"/>
<path fill-rule="evenodd" clip-rule="evenodd" d="M39.6223 34.986L60.3708 7L80.0001 34.986H68.8633L60.147 21.882L50.927 34.986H39.6223Z" fill="#60BCFE"/>
<path fill-rule="evenodd" clip-rule="evenodd" d="M17.6565 20.902L35.0472 7.01398V18.06L29.1011 22.414L39.5662 35H29.157L17.6565 20.902Z" fill="#60BCFE"/>
<path fill-rule="evenodd" clip-rule="evenodd" d="M0 35L14.5645 23.254L14.5505 35H0Z" fill="#60BCFE"/>
<path fill-rule="evenodd" clip-rule="evenodd" d="M39.5662 31.5L47.4291 24.402L39.5662 35V31.976V31.5Z" fill="#4C7BF9"/>
<path d="M91.7676 0V42" stroke="#F7941D" stroke-miterlimit="10"/>
<path d="M111.078 12.4473C111.078 13.2585 110.971 13.9535 110.756 14.5322C110.547 15.1064 110.244 15.5758 109.847 15.9404C109.451 16.305 108.968 16.5739 108.398 16.7471C107.833 16.9157 107.158 17 106.375 17H104.262C104.112 17 103.984 16.9567 103.879 16.8701C103.779 16.779 103.729 16.6331 103.729 16.4326V8.72168C103.729 8.52116 103.779 8.3776 103.879 8.29102C103.984 8.19987 104.112 8.1543 104.262 8.1543H106.532C107.32 8.1543 107.988 8.24772 108.535 8.43457C109.086 8.61686 109.549 8.8903 109.922 9.25488C110.301 9.61491 110.588 10.0615 110.784 10.5947C110.98 11.1279 111.078 11.7454 111.078 12.4473ZM109.218 12.5088C109.218 12.0895 109.168 11.6999 109.068 11.3398C108.972 10.9798 108.815 10.6676 108.596 10.4033C108.382 10.139 108.104 9.93392 107.762 9.78809C107.425 9.6377 106.981 9.5625 106.429 9.5625H105.52V15.5781H106.457C106.949 15.5781 107.363 15.5143 107.701 15.3867C108.038 15.2591 108.318 15.0677 108.542 14.8125C108.769 14.5527 108.938 14.2314 109.047 13.8486C109.161 13.4658 109.218 13.0192 109.218 12.5088ZM117.654 16.7881C117.654 16.8519 117.631 16.902 117.585 16.9385C117.54 16.9749 117.467 17 117.367 17.0137C117.271 17.0319 117.127 17.041 116.936 17.041C116.731 17.041 116.581 17.0319 116.485 17.0137C116.394 17 116.328 16.9749 116.287 16.9385C116.25 16.902 116.232 16.8519 116.232 16.7881V16.3027C115.981 16.5716 115.694 16.7812 115.371 16.9316C115.052 17.082 114.696 17.1572 114.304 17.1572C113.981 17.1572 113.682 17.1139 113.409 17.0273C113.14 16.9453 112.905 16.8223 112.705 16.6582C112.509 16.4896 112.356 16.2822 112.247 16.0361C112.137 15.79 112.083 15.5029 112.083 15.1748C112.083 14.8193 112.151 14.5117 112.288 14.252C112.429 13.9876 112.636 13.7712 112.91 13.6025C113.188 13.4294 113.532 13.3018 113.942 13.2197C114.352 13.1377 114.828 13.0967 115.371 13.0967H115.965V12.7275C115.965 12.5361 115.945 12.3698 115.904 12.2285C115.867 12.0827 115.804 11.9619 115.712 11.8662C115.626 11.7705 115.507 11.6999 115.357 11.6543C115.211 11.6087 115.029 11.5859 114.81 11.5859C114.523 11.5859 114.265 11.6178 114.038 11.6816C113.814 11.7454 113.616 11.8161 113.443 11.8936C113.27 11.971 113.124 12.0417 113.005 12.1055C112.891 12.1693 112.798 12.2012 112.725 12.2012C112.675 12.2012 112.629 12.1852 112.588 12.1533C112.552 12.1214 112.52 12.0758 112.493 12.0166C112.47 11.9574 112.452 11.8844 112.438 11.7979C112.424 11.7113 112.417 11.6156 112.417 11.5107C112.417 11.3695 112.429 11.2578 112.452 11.1758C112.474 11.0938 112.518 11.0208 112.582 10.957C112.645 10.8887 112.757 10.8158 112.917 10.7383C113.076 10.6562 113.263 10.5811 113.477 10.5127C113.691 10.4443 113.924 10.3896 114.174 10.3486C114.43 10.3031 114.692 10.2803 114.96 10.2803C115.439 10.2803 115.847 10.3281 116.184 10.4238C116.526 10.515 116.806 10.6585 117.025 10.8545C117.244 11.0459 117.403 11.2943 117.503 11.5996C117.604 11.9049 117.654 12.2673 117.654 12.6865V16.7881ZM115.965 14.1768H115.309C115.031 14.1768 114.794 14.1973 114.598 14.2383C114.402 14.2793 114.243 14.3408 114.12 14.4229C113.997 14.5049 113.905 14.6051 113.846 14.7236C113.792 14.8376 113.764 14.9697 113.764 15.1201C113.764 15.3753 113.844 15.5758 114.003 15.7217C114.167 15.8675 114.393 15.9404 114.68 15.9404C114.922 15.9404 115.143 15.8789 115.343 15.7559C115.548 15.6328 115.756 15.4528 115.965 15.2158V14.1768ZM122.849 16.166C122.849 16.3665 122.835 16.5215 122.808 16.6309C122.785 16.7357 122.753 16.8109 122.712 16.8564C122.671 16.8975 122.61 16.9362 122.528 16.9727C122.45 17.0046 122.357 17.0319 122.248 17.0547C122.143 17.082 122.027 17.1025 121.899 17.1162C121.776 17.1299 121.651 17.1367 121.523 17.1367C121.181 17.1367 120.885 17.0934 120.634 17.0068C120.384 16.9202 120.176 16.7881 120.012 16.6104C119.848 16.4281 119.727 16.2002 119.65 15.9268C119.572 15.6533 119.534 15.3298 119.534 14.9561V11.832H118.802C118.716 11.832 118.65 11.7796 118.604 11.6748C118.558 11.5654 118.536 11.3854 118.536 11.1348C118.536 11.0026 118.54 10.891 118.549 10.7998C118.563 10.7087 118.581 10.638 118.604 10.5879C118.627 10.5332 118.654 10.4945 118.686 10.4717C118.722 10.4489 118.764 10.4375 118.809 10.4375H119.534V9.07715C119.534 9.03158 119.545 8.99056 119.568 8.9541C119.595 8.91764 119.641 8.88802 119.705 8.86523C119.773 8.83789 119.862 8.81966 119.971 8.81055C120.085 8.79688 120.224 8.79004 120.388 8.79004C120.557 8.79004 120.696 8.79688 120.805 8.81055C120.919 8.81966 121.008 8.83789 121.072 8.86523C121.136 8.88802 121.181 8.91764 121.208 8.9541C121.236 8.99056 121.25 9.03158 121.25 9.07715V10.4375H122.576C122.621 10.4375 122.66 10.4489 122.692 10.4717C122.728 10.4945 122.758 10.5332 122.781 10.5879C122.804 10.638 122.819 10.7087 122.829 10.7998C122.842 10.891 122.849 11.0026 122.849 11.1348C122.849 11.3854 122.826 11.5654 122.781 11.6748C122.735 11.7796 122.669 11.832 122.583 11.832H121.25V14.6963C121.25 15.029 121.302 15.2796 121.407 15.4482C121.512 15.6123 121.698 15.6943 121.967 15.6943C122.058 15.6943 122.14 15.6875 122.213 15.6738C122.286 15.6556 122.35 15.6374 122.405 15.6191C122.464 15.5964 122.512 15.5781 122.548 15.5645C122.589 15.5462 122.626 15.5371 122.658 15.5371C122.685 15.5371 122.71 15.5462 122.733 15.5645C122.76 15.5781 122.781 15.61 122.794 15.6602C122.808 15.7057 122.819 15.7695 122.829 15.8516C122.842 15.9336 122.849 16.0384 122.849 16.166ZM129.152 16.7881C129.152 16.8519 129.129 16.902 129.083 16.9385C129.038 16.9749 128.965 17 128.865 17.0137C128.769 17.0319 128.625 17.041 128.434 17.041C128.229 17.041 128.079 17.0319 127.983 17.0137C127.892 17 127.826 16.9749 127.785 16.9385C127.748 16.902 127.73 16.8519 127.73 16.7881V16.3027C127.479 16.5716 127.192 16.7812 126.869 16.9316C126.55 17.082 126.194 17.1572 125.802 17.1572C125.479 17.1572 125.18 17.1139 124.907 17.0273C124.638 16.9453 124.403 16.8223 124.203 16.6582C124.007 16.4896 123.854 16.2822 123.745 16.0361C123.635 15.79 123.581 15.5029 123.581 15.1748C123.581 14.8193 123.649 14.5117 123.786 14.252C123.927 13.9876 124.134 13.7712 124.408 13.6025C124.686 13.4294 125.03 13.3018 125.44 13.2197C125.85 13.1377 126.326 13.0967 126.869 13.0967H127.463V12.7275C127.463 12.5361 127.443 12.3698 127.402 12.2285C127.365 12.0827 127.302 11.9619 127.21 11.8662C127.124 11.7705 127.005 11.6999 126.855 11.6543C126.709 11.6087 126.527 11.5859 126.308 11.5859C126.021 11.5859 125.764 11.6178 125.536 11.6816C125.312 11.7454 125.114 11.8161 124.941 11.8936C124.768 11.971 124.622 12.0417 124.503 12.1055C124.389 12.1693 124.296 12.2012 124.223 12.2012C124.173 12.2012 124.127 12.1852 124.086 12.1533C124.05 12.1214 124.018 12.0758 123.991 12.0166C123.968 11.9574 123.95 11.8844 123.936 11.7979C123.922 11.7113 123.916 11.6156 123.916 11.5107C123.916 11.3695 123.927 11.2578 123.95 11.1758C123.972 11.0938 124.016 11.0208 124.08 10.957C124.143 10.8887 124.255 10.8158 124.415 10.7383C124.574 10.6562 124.761 10.5811 124.975 10.5127C125.189 10.4443 125.422 10.3896 125.672 10.3486C125.928 10.3031 126.19 10.2803 126.458 10.2803C126.937 10.2803 127.345 10.3281 127.682 10.4238C128.024 10.515 128.304 10.6585 128.523 10.8545C128.742 11.0459 128.901 11.2943 129.001 11.5996C129.102 11.9049 129.152 12.2673 129.152 12.6865V16.7881ZM127.463 14.1768H126.807C126.529 14.1768 126.292 14.1973 126.096 14.2383C125.9 14.2793 125.741 14.3408 125.618 14.4229C125.495 14.5049 125.403 14.6051 125.344 14.7236C125.29 14.8376 125.262 14.9697 125.262 15.1201C125.262 15.3753 125.342 15.5758 125.501 15.7217C125.666 15.8675 125.891 15.9404 126.178 15.9404C126.42 15.9404 126.641 15.8789 126.841 15.7559C127.046 15.6328 127.254 15.4528 127.463 15.2158V14.1768Z" fill="white"/>
<path d="M111.686 28.4746C111.686 29.2083 111.595 29.8646 111.413 30.4434C111.23 31.0221 110.959 31.5143 110.599 31.9199C110.239 32.321 109.792 32.6286 109.259 32.8428C108.731 33.0524 108.118 33.1572 107.42 33.1572C106.732 33.1572 106.131 33.0684 105.616 32.8906C105.105 32.7083 104.679 32.4326 104.337 32.0635C103.996 31.6943 103.738 31.2249 103.565 30.6553C103.396 30.0856 103.312 29.4111 103.312 28.6318C103.312 27.9163 103.403 27.2738 103.585 26.7041C103.768 26.1299 104.039 25.6423 104.399 25.2412C104.759 24.8402 105.203 24.5326 105.732 24.3184C106.265 24.1042 106.883 23.9971 107.584 23.9971C108.254 23.9971 108.845 24.0859 109.355 24.2637C109.87 24.4414 110.298 24.7148 110.64 25.084C110.986 25.4531 111.246 25.9202 111.419 26.4854C111.597 27.0459 111.686 27.709 111.686 28.4746ZM109.799 28.5703C109.799 28.1055 109.763 27.6839 109.69 27.3057C109.617 26.9229 109.492 26.597 109.314 26.3281C109.141 26.0547 108.908 25.8451 108.617 25.6992C108.325 25.5488 107.96 25.4736 107.523 25.4736C107.081 25.4736 106.712 25.5579 106.416 25.7266C106.119 25.8906 105.88 26.1117 105.698 26.3896C105.515 26.6676 105.386 26.9935 105.308 27.3672C105.235 27.7363 105.199 28.1283 105.199 28.543C105.199 29.026 105.235 29.4613 105.308 29.8486C105.381 30.2314 105.504 30.5596 105.677 30.833C105.85 31.1064 106.083 31.3161 106.375 31.4619C106.666 31.6032 107.033 31.6738 107.475 31.6738C107.917 31.6738 108.286 31.5918 108.583 31.4277C108.879 31.2637 109.118 31.0404 109.3 30.7578C109.483 30.4753 109.61 30.1471 109.683 29.7734C109.761 29.3952 109.799 28.9941 109.799 28.5703ZM119.24 29.6367C119.24 30.179 119.181 30.6667 119.062 31.0996C118.944 31.5326 118.773 31.9017 118.549 32.207C118.326 32.5124 118.05 32.7471 117.722 32.9111C117.399 33.0752 117.029 33.1572 116.615 33.1572C116.41 33.1572 116.218 33.1367 116.041 33.0957C115.863 33.0592 115.692 32.9977 115.528 32.9111C115.368 32.8245 115.209 32.7152 115.049 32.583C114.894 32.4508 114.735 32.2913 114.571 32.1045V32.7676C114.571 32.8177 114.557 32.861 114.53 32.8975C114.507 32.9294 114.466 32.9567 114.407 32.9795C114.352 33.0023 114.277 33.0182 114.181 33.0273C114.085 33.0365 113.969 33.041 113.833 33.041C113.691 33.041 113.573 33.0365 113.477 33.0273C113.386 33.0182 113.311 33.0023 113.251 32.9795C113.197 32.9567 113.158 32.9294 113.135 32.8975C113.112 32.861 113.101 32.8177 113.101 32.7676V23.7783C113.101 23.7327 113.115 23.6917 113.142 23.6553C113.169 23.6188 113.215 23.5892 113.279 23.5664C113.347 23.5391 113.436 23.5186 113.545 23.5049C113.655 23.4912 113.794 23.4844 113.962 23.4844C114.131 23.4844 114.27 23.4912 114.379 23.5049C114.489 23.5186 114.575 23.5391 114.639 23.5664C114.708 23.5892 114.755 23.6188 114.783 23.6553C114.81 23.6917 114.824 23.7327 114.824 23.7783V27.1484C114.979 26.9935 115.134 26.8613 115.289 26.752C115.444 26.6426 115.598 26.5537 115.753 26.4854C115.908 26.4124 116.068 26.36 116.232 26.3281C116.396 26.2962 116.569 26.2803 116.751 26.2803C117.203 26.2803 117.585 26.3714 117.9 26.5537C118.214 26.7314 118.47 26.973 118.666 27.2783C118.866 27.5837 119.012 27.9414 119.103 28.3516C119.194 28.7572 119.24 29.1855 119.24 29.6367ZM117.456 29.7598C117.456 29.5 117.435 29.2493 117.394 29.0078C117.358 28.7663 117.292 28.5521 117.196 28.3652C117.1 28.1784 116.975 28.0303 116.82 27.9209C116.669 27.807 116.478 27.75 116.246 27.75C116.132 27.75 116.02 27.766 115.911 27.7979C115.801 27.8298 115.687 27.8844 115.569 27.9619C115.455 28.0394 115.336 28.1396 115.213 28.2627C115.09 28.3857 114.96 28.5384 114.824 28.7207V30.7441C115.065 31.054 115.295 31.291 115.514 31.4551C115.737 31.6146 115.97 31.6943 116.211 31.6943C116.435 31.6943 116.624 31.6374 116.779 31.5234C116.934 31.4095 117.061 31.2614 117.162 31.0791C117.266 30.8968 117.342 30.6895 117.387 30.457C117.433 30.2246 117.456 29.9922 117.456 29.7598ZM124.216 24.3457C124.216 24.4779 124.212 24.585 124.203 24.667C124.194 24.7445 124.18 24.806 124.162 24.8516C124.143 24.8926 124.123 24.9222 124.1 24.9404C124.077 24.9541 124.052 24.9609 124.025 24.9609C123.993 24.9609 123.957 24.9541 123.916 24.9404C123.879 24.9222 123.831 24.904 123.772 24.8857C123.717 24.8675 123.651 24.8516 123.574 24.8379C123.496 24.8197 123.405 24.8105 123.3 24.8105C123.177 24.8105 123.07 24.8311 122.979 24.8721C122.892 24.9085 122.819 24.9701 122.76 25.0566C122.701 25.1387 122.658 25.248 122.63 25.3848C122.603 25.5169 122.589 25.681 122.589 25.877V26.4375H123.704C123.745 26.4375 123.781 26.4489 123.813 26.4717C123.849 26.4945 123.879 26.5332 123.902 26.5879C123.925 26.638 123.941 26.7087 123.95 26.7998C123.963 26.891 123.97 27.0026 123.97 27.1348C123.97 27.3854 123.947 27.5654 123.902 27.6748C123.856 27.7796 123.79 27.832 123.704 27.832H122.589V32.7676C122.589 32.8132 122.576 32.8542 122.548 32.8906C122.521 32.9225 122.475 32.9499 122.412 32.9727C122.348 32.9954 122.259 33.0114 122.145 33.0205C122.031 33.0342 121.892 33.041 121.728 33.041C121.564 33.041 121.425 33.0342 121.311 33.0205C121.202 33.0114 121.113 32.9954 121.044 32.9727C120.981 32.9499 120.935 32.9225 120.908 32.8906C120.885 32.8542 120.874 32.8132 120.874 32.7676V27.832H120.108C120.021 27.832 119.955 27.7796 119.91 27.6748C119.869 27.5654 119.848 27.3854 119.848 27.1348C119.848 27.0026 119.853 26.891 119.862 26.7998C119.875 26.7087 119.891 26.638 119.91 26.5879C119.932 26.5332 119.96 26.4945 119.992 26.4717C120.028 26.4489 120.069 26.4375 120.115 26.4375H120.874V25.9248C120.874 25.5101 120.915 25.1478 120.997 24.8379C121.079 24.5234 121.206 24.2637 121.379 24.0586C121.557 23.849 121.78 23.6917 122.049 23.5869C122.323 23.4821 122.644 23.4297 123.013 23.4297C123.191 23.4297 123.36 23.4456 123.519 23.4775C123.679 23.5049 123.804 23.5368 123.895 23.5732C123.986 23.6051 124.048 23.637 124.08 23.6689C124.111 23.6963 124.137 23.7396 124.155 23.7988C124.178 23.8535 124.194 23.9264 124.203 24.0176C124.212 24.1042 124.216 24.2135 124.216 24.3457ZM130.751 32.7676C130.751 32.8132 130.74 32.8542 130.717 32.8906C130.694 32.9225 130.653 32.9499 130.594 32.9727C130.54 32.9954 130.464 33.0114 130.369 33.0205C130.278 33.0342 130.161 33.041 130.02 33.041C129.87 33.041 129.747 33.0342 129.651 33.0205C129.56 33.0114 129.487 32.9954 129.432 32.9727C129.377 32.9499 129.339 32.9225 129.316 32.8906C129.293 32.8542 129.282 32.8132 129.282 32.7676V32.0635C128.944 32.4281 128.6 32.7015 128.25 32.8838C127.903 33.0661 127.543 33.1572 127.169 33.1572C126.75 33.1572 126.397 33.0889 126.11 32.9521C125.827 32.8154 125.597 32.6286 125.419 32.3916C125.246 32.1546 125.121 31.8812 125.043 31.5713C124.971 31.2568 124.934 30.8672 124.934 30.4023V26.6699C124.934 26.6243 124.945 26.5856 124.968 26.5537C124.996 26.5173 125.041 26.4876 125.105 26.4648C125.173 26.4421 125.262 26.4261 125.372 26.417C125.486 26.4033 125.625 26.3965 125.789 26.3965C125.957 26.3965 126.096 26.4033 126.206 26.417C126.315 26.4261 126.402 26.4421 126.465 26.4648C126.534 26.4876 126.582 26.5173 126.609 26.5537C126.636 26.5856 126.65 26.6243 126.65 26.6699V30.1152C126.65 30.4342 126.67 30.6781 126.711 30.8467C126.752 31.0153 126.814 31.1611 126.896 31.2842C126.983 31.4027 127.09 31.4961 127.217 31.5645C127.349 31.6283 127.502 31.6602 127.675 31.6602C127.894 31.6602 128.113 31.5804 128.332 31.4209C128.555 31.2614 128.792 31.029 129.042 30.7236V26.6699C129.042 26.6243 129.054 26.5856 129.077 26.5537C129.104 26.5173 129.15 26.4876 129.213 26.4648C129.282 26.4421 129.371 26.4261 129.48 26.417C129.589 26.4033 129.728 26.3965 129.897 26.3965C130.066 26.3965 130.205 26.4033 130.314 26.417C130.423 26.4261 130.51 26.4421 130.574 26.4648C130.638 26.4876 130.683 26.5173 130.71 26.5537C130.738 26.5856 130.751 26.6243 130.751 26.6699V32.7676ZM136.781 31.0449C136.781 31.3913 136.715 31.6966 136.583 31.9609C136.455 32.2253 136.273 32.4463 136.036 32.624C135.799 32.8018 135.518 32.9339 135.195 33.0205C134.871 33.1117 134.52 33.1572 134.142 33.1572C133.914 33.1572 133.695 33.139 133.486 33.1025C133.281 33.0706 133.096 33.0296 132.932 32.9795C132.768 32.9248 132.631 32.8701 132.522 32.8154C132.413 32.7607 132.333 32.7106 132.283 32.665C132.233 32.6149 132.194 32.5397 132.167 32.4395C132.139 32.3346 132.125 32.182 132.125 31.9814C132.125 31.8493 132.13 31.7445 132.139 31.667C132.148 31.585 132.162 31.5212 132.18 31.4756C132.198 31.4255 132.221 31.3936 132.249 31.3799C132.276 31.3617 132.31 31.3525 132.351 31.3525C132.401 31.3525 132.474 31.3822 132.57 31.4414C132.67 31.4961 132.793 31.5576 132.939 31.626C133.085 31.6943 133.253 31.7581 133.445 31.8174C133.641 31.8766 133.862 31.9062 134.108 31.9062C134.263 31.9062 134.4 31.8903 134.518 31.8584C134.641 31.8265 134.746 31.7809 134.833 31.7217C134.924 31.6624 134.992 31.5872 135.038 31.4961C135.083 31.4049 135.106 31.3001 135.106 31.1816C135.106 31.0449 135.063 30.9287 134.976 30.833C134.894 30.7327 134.782 30.6462 134.641 30.5732C134.504 30.5003 134.347 30.432 134.169 30.3682C133.996 30.3044 133.816 30.2337 133.629 30.1562C133.447 30.0788 133.267 29.9899 133.089 29.8896C132.916 29.7894 132.759 29.6663 132.618 29.5205C132.481 29.3747 132.369 29.1992 132.283 28.9941C132.201 28.7891 132.16 28.543 132.16 28.2559C132.16 27.9642 132.217 27.6976 132.331 27.4561C132.444 27.21 132.609 27.0003 132.823 26.8271C133.037 26.654 133.297 26.5195 133.602 26.4238C133.912 26.3281 134.258 26.2803 134.641 26.2803C134.833 26.2803 135.017 26.2939 135.195 26.3213C135.377 26.3486 135.541 26.3828 135.687 26.4238C135.833 26.4648 135.956 26.5104 136.056 26.5605C136.156 26.6061 136.227 26.6471 136.268 26.6836C136.314 26.7155 136.346 26.7497 136.364 26.7861C136.382 26.818 136.396 26.859 136.405 26.9092C136.414 26.9548 136.421 27.014 136.425 27.0869C136.434 27.1553 136.439 27.2419 136.439 27.3467C136.439 27.4697 136.434 27.57 136.425 27.6475C136.421 27.7249 136.409 27.7865 136.391 27.832C136.377 27.8776 136.357 27.9095 136.33 27.9277C136.302 27.9414 136.27 27.9482 136.234 27.9482C136.193 27.9482 136.129 27.9255 136.042 27.8799C135.956 27.8298 135.847 27.7773 135.714 27.7227C135.587 27.668 135.436 27.6178 135.263 27.5723C135.095 27.5221 134.901 27.4971 134.682 27.4971C134.527 27.4971 134.393 27.513 134.279 27.5449C134.165 27.5768 134.071 27.6224 133.999 27.6816C133.926 27.7409 133.871 27.8115 133.834 27.8936C133.798 27.971 133.78 28.0553 133.78 28.1465C133.78 28.2878 133.823 28.4062 133.91 28.502C133.996 28.5977 134.11 28.682 134.251 28.7549C134.393 28.8278 134.552 28.8962 134.73 28.96C134.912 29.0238 135.095 29.0944 135.277 29.1719C135.464 29.2448 135.646 29.3314 135.824 29.4316C136.006 29.5319 136.168 29.6549 136.309 29.8008C136.45 29.9466 136.564 30.1221 136.651 30.3271C136.737 30.5277 136.781 30.7669 136.781 31.0449ZM142.694 31.7969C142.694 31.9154 142.689 32.0156 142.68 32.0977C142.676 32.1751 142.667 32.2412 142.653 32.2959C142.644 32.3506 142.63 32.3962 142.612 32.4326C142.598 32.4645 142.564 32.5078 142.509 32.5625C142.455 32.6126 142.361 32.6764 142.229 32.7539C142.097 32.8268 141.946 32.8929 141.778 32.9521C141.609 33.0114 141.425 33.0592 141.224 33.0957C141.028 33.1322 140.825 33.1504 140.616 33.1504C140.146 33.1504 139.729 33.0775 139.365 32.9316C139.005 32.7858 138.702 32.5716 138.456 32.2891C138.209 32.002 138.023 31.6533 137.895 31.2432C137.772 30.833 137.71 30.3636 137.71 29.835C137.71 29.2243 137.786 28.6979 137.936 28.2559C138.091 27.8092 138.305 27.4401 138.579 27.1484C138.852 26.8568 139.176 26.6403 139.549 26.499C139.923 26.3577 140.333 26.2871 140.78 26.2871C140.962 26.2871 141.14 26.3031 141.313 26.335C141.491 26.3669 141.655 26.4102 141.805 26.4648C141.96 26.5195 142.097 26.5811 142.215 26.6494C142.338 26.7178 142.425 26.777 142.475 26.8271C142.525 26.8773 142.559 26.9206 142.578 26.957C142.6 26.9889 142.616 27.0322 142.625 27.0869C142.639 27.1416 142.648 27.21 142.653 27.292C142.662 27.3695 142.667 27.4652 142.667 27.5791C142.667 27.8434 142.644 28.0303 142.598 28.1396C142.553 28.2445 142.493 28.2969 142.42 28.2969C142.343 28.2969 142.261 28.265 142.174 28.2012C142.088 28.1374 141.985 28.0667 141.867 27.9893C141.748 27.9118 141.607 27.8411 141.443 27.7773C141.279 27.7135 141.083 27.6816 140.855 27.6816C140.408 27.6816 140.067 27.8548 139.83 28.2012C139.593 28.543 139.474 29.0465 139.474 29.7119C139.474 30.04 139.504 30.3294 139.563 30.5801C139.622 30.8307 139.709 31.0404 139.823 31.209C139.941 31.3776 140.087 31.5052 140.26 31.5918C140.438 31.6738 140.643 31.7148 140.875 31.7148C141.112 31.7148 141.315 31.6807 141.484 31.6123C141.657 31.5394 141.807 31.4596 141.935 31.373C142.063 31.2865 142.17 31.209 142.256 31.1406C142.343 31.0677 142.416 31.0312 142.475 31.0312C142.516 31.0312 142.55 31.0426 142.578 31.0654C142.605 31.0882 142.625 31.1315 142.639 31.1953C142.657 31.2546 142.671 31.332 142.68 31.4277C142.689 31.5234 142.694 31.6465 142.694 31.7969ZM149.058 32.7881C149.058 32.8519 149.035 32.902 148.99 32.9385C148.944 32.9749 148.871 33 148.771 33.0137C148.675 33.0319 148.532 33.041 148.34 33.041C148.135 33.041 147.985 33.0319 147.889 33.0137C147.798 33 147.732 32.9749 147.691 32.9385C147.654 32.902 147.636 32.8519 147.636 32.7881V32.3027C147.386 32.5716 147.098 32.7812 146.775 32.9316C146.456 33.082 146.1 33.1572 145.708 33.1572C145.385 33.1572 145.086 33.1139 144.813 33.0273C144.544 32.9453 144.309 32.8223 144.109 32.6582C143.913 32.4896 143.76 32.2822 143.651 32.0361C143.542 31.79 143.487 31.5029 143.487 31.1748C143.487 30.8193 143.555 30.5117 143.692 30.252C143.833 29.9876 144.041 29.7712 144.314 29.6025C144.592 29.4294 144.936 29.3018 145.346 29.2197C145.756 29.1377 146.233 29.0967 146.775 29.0967H147.37V28.7275C147.37 28.5361 147.349 28.3698 147.308 28.2285C147.272 28.0827 147.208 27.9619 147.117 27.8662C147.03 27.7705 146.912 27.6999 146.761 27.6543C146.615 27.6087 146.433 27.5859 146.214 27.5859C145.927 27.5859 145.67 27.6178 145.442 27.6816C145.219 27.7454 145.02 27.8161 144.847 27.8936C144.674 27.971 144.528 28.0417 144.41 28.1055C144.296 28.1693 144.202 28.2012 144.129 28.2012C144.079 28.2012 144.034 28.1852 143.993 28.1533C143.956 28.1214 143.924 28.0758 143.897 28.0166C143.874 27.9574 143.856 27.8844 143.842 27.7979C143.829 27.7113 143.822 27.6156 143.822 27.5107C143.822 27.3695 143.833 27.2578 143.856 27.1758C143.879 27.0938 143.922 27.0208 143.986 26.957C144.05 26.8887 144.161 26.8158 144.321 26.7383C144.48 26.6562 144.667 26.5811 144.881 26.5127C145.096 26.4443 145.328 26.3896 145.579 26.3486C145.834 26.3031 146.096 26.2803 146.365 26.2803C146.843 26.2803 147.251 26.3281 147.588 26.4238C147.93 26.515 148.21 26.6585 148.429 26.8545C148.648 27.0459 148.807 27.2943 148.908 27.5996C149.008 27.9049 149.058 28.2673 149.058 28.6865V32.7881ZM147.37 30.1768H146.713C146.435 30.1768 146.198 30.1973 146.002 30.2383C145.806 30.2793 145.647 30.3408 145.524 30.4229C145.401 30.5049 145.31 30.6051 145.25 30.7236C145.196 30.8376 145.168 30.9697 145.168 31.1201C145.168 31.3753 145.248 31.5758 145.408 31.7217C145.572 31.8675 145.797 31.9404 146.084 31.9404C146.326 31.9404 146.547 31.8789 146.748 31.7559C146.953 31.6328 147.16 31.4528 147.37 31.2158V30.1768ZM156.598 26.4375C156.79 26.4375 156.922 26.4785 156.995 26.5605C157.072 26.6426 157.111 26.7611 157.111 26.916V32.7676C157.111 32.8132 157.097 32.8542 157.07 32.8906C157.042 32.9225 156.997 32.9499 156.933 32.9727C156.869 32.9954 156.78 33.0114 156.667 33.0205C156.557 33.0342 156.42 33.041 156.256 33.041C156.088 33.041 155.946 33.0342 155.833 33.0205C155.723 33.0114 155.637 32.9954 155.573 32.9727C155.509 32.9499 155.463 32.9225 155.436 32.8906C155.409 32.8542 155.395 32.8132 155.395 32.7676V27.832H152.654V30.6963C152.654 31.029 152.706 31.2796 152.811 31.4482C152.916 31.6123 153.103 31.6943 153.372 31.6943C153.463 31.6943 153.545 31.6875 153.618 31.6738C153.691 31.6556 153.754 31.6374 153.809 31.6191C153.868 31.5964 153.916 31.5781 153.953 31.5645C153.994 31.5462 154.03 31.5371 154.062 31.5371C154.089 31.5371 154.114 31.5462 154.137 31.5645C154.165 31.5781 154.185 31.61 154.199 31.6602C154.212 31.7057 154.224 31.7695 154.233 31.8516C154.247 31.9336 154.253 32.0384 154.253 32.166C154.253 32.3665 154.242 32.5192 154.219 32.624C154.196 32.7243 154.165 32.7995 154.124 32.8496C154.083 32.8952 154.021 32.9362 153.939 32.9727C153.857 33.0046 153.761 33.0319 153.652 33.0547C153.547 33.082 153.431 33.1025 153.303 33.1162C153.18 33.1299 153.055 33.1367 152.927 33.1367C152.585 33.1367 152.289 33.0934 152.039 33.0068C151.788 32.9202 151.581 32.7881 151.417 32.6104C151.252 32.4281 151.132 32.2002 151.054 31.9268C150.977 31.6533 150.938 31.3298 150.938 30.9561V27.832H150.207C150.12 27.832 150.054 27.7796 150.008 27.6748C149.963 27.5654 149.94 27.3854 149.94 27.1348C149.94 27.0026 149.944 26.891 149.954 26.7998C149.967 26.7087 149.986 26.638 150.008 26.5879C150.031 26.5332 150.058 26.4945 150.09 26.4717C150.127 26.4489 150.168 26.4375 150.213 26.4375H150.938V25.0771C150.938 25.0316 150.949 24.9906 150.972 24.9541C151 24.9176 151.045 24.888 151.109 24.8652C151.177 24.8379 151.266 24.8197 151.375 24.8105C151.489 24.7969 151.628 24.79 151.792 24.79C151.961 24.79 152.1 24.7969 152.209 24.8105C152.323 24.8197 152.412 24.8379 152.476 24.8652C152.54 24.888 152.585 24.9176 152.613 24.9541C152.64 24.9906 152.654 25.0316 152.654 25.0771V26.4375H156.598ZM157.248 24.6055C157.248 24.9518 157.177 25.1911 157.036 25.3232C156.894 25.4554 156.632 25.5215 156.25 25.5215C155.862 25.5215 155.6 25.4577 155.463 25.3301C155.331 25.2025 155.265 24.9723 155.265 24.6396C155.265 24.2933 155.333 24.054 155.47 23.9219C155.611 23.7852 155.876 23.7168 156.263 23.7168C156.646 23.7168 156.906 23.7829 157.042 23.915C157.179 24.0426 157.248 24.2728 157.248 24.6055ZM165.013 29.6572C165.013 30.1768 164.945 30.6507 164.808 31.0791C164.671 31.5075 164.464 31.8766 164.186 32.1865C163.908 32.4964 163.559 32.7357 163.14 32.9043C162.721 33.0729 162.231 33.1572 161.67 33.1572C161.128 33.1572 160.656 33.082 160.255 32.9316C159.854 32.7812 159.522 32.5625 159.257 32.2754C158.993 31.9883 158.797 31.6351 158.669 31.2158C158.542 30.7965 158.478 30.318 158.478 29.7803C158.478 29.2607 158.546 28.7868 158.683 28.3584C158.824 27.9255 159.034 27.5563 159.312 27.251C159.59 26.9411 159.936 26.7018 160.351 26.5332C160.77 26.3646 161.26 26.2803 161.821 26.2803C162.368 26.2803 162.842 26.3555 163.243 26.5059C163.644 26.6517 163.974 26.8682 164.234 27.1553C164.498 27.4424 164.694 27.7956 164.822 28.2148C164.949 28.6341 165.013 29.1149 165.013 29.6572ZM163.243 29.7256C163.243 29.4248 163.218 29.1491 163.167 28.8984C163.122 28.6432 163.042 28.4222 162.928 28.2354C162.814 28.0485 162.662 27.9027 162.47 27.7979C162.283 27.693 162.046 27.6406 161.759 27.6406C161.504 27.6406 161.281 27.6885 161.089 27.7842C160.898 27.8753 160.741 28.012 160.618 28.1943C160.495 28.3721 160.401 28.5885 160.337 28.8438C160.278 29.0944 160.249 29.3815 160.249 29.7051C160.249 30.0059 160.274 30.2839 160.324 30.5391C160.374 30.7897 160.454 31.0085 160.563 31.1953C160.677 31.3822 160.83 31.528 161.021 31.6328C161.212 31.7331 161.449 31.7832 161.732 31.7832C161.992 31.7832 162.217 31.7376 162.409 31.6465C162.6 31.5508 162.757 31.4141 162.88 31.2363C163.003 31.0586 163.095 30.8444 163.154 30.5938C163.213 30.3385 163.243 30.0492 163.243 29.7256ZM172.205 32.7676C172.205 32.8132 172.191 32.8542 172.164 32.8906C172.136 32.9225 172.091 32.9499 172.027 32.9727C171.963 32.9954 171.874 33.0114 171.76 33.0205C171.651 33.0342 171.514 33.041 171.35 33.041C171.181 33.041 171.04 33.0342 170.926 33.0205C170.817 33.0114 170.73 32.9954 170.667 32.9727C170.603 32.9499 170.557 32.9225 170.53 32.8906C170.502 32.8542 170.489 32.8132 170.489 32.7676V29.2881C170.489 28.9919 170.466 28.7594 170.42 28.5908C170.379 28.4222 170.318 28.2786 170.236 28.1602C170.154 28.0371 170.047 27.9437 169.915 27.8799C169.787 27.8115 169.637 27.7773 169.463 27.7773C169.245 27.7773 169.024 27.8571 168.8 28.0166C168.577 28.1761 168.345 28.4085 168.103 28.7139V32.7676C168.103 32.8132 168.089 32.8542 168.062 32.8906C168.035 32.9225 167.987 32.9499 167.918 32.9727C167.855 32.9954 167.768 33.0114 167.659 33.0205C167.549 33.0342 167.41 33.041 167.242 33.041C167.073 33.041 166.934 33.0342 166.825 33.0205C166.715 33.0114 166.626 32.9954 166.558 32.9727C166.494 32.9499 166.449 32.9225 166.421 32.8906C166.394 32.8542 166.38 32.8132 166.38 32.7676V26.6699C166.38 26.6243 166.392 26.5856 166.415 26.5537C166.437 26.5173 166.478 26.4876 166.538 26.4648C166.597 26.4421 166.672 26.4261 166.763 26.417C166.859 26.4033 166.977 26.3965 167.119 26.3965C167.264 26.3965 167.385 26.4033 167.481 26.417C167.577 26.4261 167.65 26.4421 167.7 26.4648C167.754 26.4876 167.793 26.5173 167.816 26.5537C167.839 26.5856 167.85 26.6243 167.85 26.6699V27.374C168.187 27.0094 168.529 26.736 168.875 26.5537C169.226 26.3714 169.591 26.2803 169.969 26.2803C170.384 26.2803 170.733 26.3486 171.015 26.4854C171.302 26.6221 171.532 26.8089 171.706 27.0459C171.883 27.2783 172.011 27.5518 172.088 27.8662C172.166 28.1807 172.205 28.5589 172.205 29.001V32.7676Z" fill="white"/>
</g>
<defs>
<clipPath id="clip0_1132_13310">
<rect width="173" height="42" fill="white"/>
</clipPath>
</defs>
</svg>
