<svg width="17" height="20" viewBox="0 0 17 20" fill="none" xmlns="http://www.w3.org/2000/svg">
<g clip-path="url(#clip0_1059_2)">
<path d="M5.90321 3.39095C9.02161 3.39095 11.5496 2.68898 11.5496 1.82304C11.5496 0.957106 9.02161 0.255127 5.90321 0.255127C2.7848 0.255127 0.256836 0.957106 0.256836 1.82304C0.256836 2.68898 2.7848 3.39095 5.90321 3.39095Z" stroke="#FFAE1F" stroke-width="0.5" stroke-miterlimit="10"/>
<path d="M0.256836 1.823V11.6186C0.965607 12.2847 1.9071 12.6248 2.89059 12.6248" stroke="#FFAE1F" stroke-width="0.5" stroke-miterlimit="10"/>
<path d="M0.256836 8.39185C0.965607 9.05795 1.9071 9.39812 2.89059 9.39812" stroke="#FFAE1F" stroke-width="0.5" stroke-miterlimit="10"/>
<path d="M0.256836 5.25366C0.965607 5.91976 1.9071 6.25994 2.89059 6.25994" stroke="#FFAE1F" stroke-width="0.5" stroke-miterlimit="10"/>
<path d="M11.5498 3.50012V1.823" stroke="#FFAE1F" stroke-width="0.5" stroke-miterlimit="10"/>
<path d="M12.8687 6.88559C13.0238 6.88559 13.1671 6.90509 13.3143 7.05135L13.7128 7.44723C14.1683 7.89966 14.7601 7.86943 15.1851 7.44723L16.6535 5.6765L15.5463 4.57662C15.2283 4.26069 14.8985 4.06958 14.6476 4.06958H12.9201H12.8687H11.1413C10.8389 4.06958 10.5092 4.26069 10.1911 4.57662L9.08398 5.6765L10.5523 7.44723C10.9773 7.86943 11.5692 7.89966 12.0246 7.44723L12.4231 7.05135C12.5704 6.90509 12.7137 6.88559 12.8687 6.88559Z" stroke="#FFAE1F" stroke-width="0.5" stroke-miterlimit="10"/>
<path d="M5.03223 8.90601H8.70705" stroke="#FFAE1F" stroke-width="0.5" stroke-miterlimit="10"/>
<path d="M9.6416 8.90601H13.3164" stroke="#FFAE1F" stroke-width="0.5" stroke-miterlimit="10"/>
<path d="M5.03223 10.552H8.70705" stroke="#FFAE1F" stroke-width="0.5" stroke-miterlimit="10"/>
<path d="M9.6416 10.552H13.3164" stroke="#FFAE1F" stroke-width="0.5" stroke-miterlimit="10"/>
<path d="M5.03223 12.1978H8.70705" stroke="#FFAE1F" stroke-width="0.5" stroke-miterlimit="10"/>
<path d="M9.6416 12.1978H13.3164" stroke="#FFAE1F" stroke-width="0.5" stroke-miterlimit="10"/>
<path d="M5.03223 13.8438H8.70705" stroke="#FFAE1F" stroke-width="0.5" stroke-miterlimit="10"/>
<path d="M9.6416 13.8438H13.3164" stroke="#FFAE1F" stroke-width="0.5" stroke-miterlimit="10"/>
<path d="M5.03223 15.4897H8.70705" stroke="#FFAE1F" stroke-width="0.5" stroke-miterlimit="10"/>
<path d="M9.6416 15.4897H13.3164" stroke="#FFAE1F" stroke-width="0.5" stroke-miterlimit="10"/>
<path d="M5.03223 17.1355H8.70705" stroke="#FFAE1F" stroke-width="0.5" stroke-miterlimit="10"/>
<path d="M9.6416 17.1355H13.3164" stroke="#FFAE1F" stroke-width="0.5" stroke-miterlimit="10"/>
<path d="M8.70722 5.0603H3.83887V18.6099H14.5571V8.47695" stroke="#FFAE1F" stroke-width="0.5" stroke-miterlimit="10"/>
<path d="M3.8623 19.7449H14.557" stroke="#FFAE1F" stroke-width="0.5" stroke-miterlimit="10"/>
<path d="M10.7568 5.81722C11.2332 6.38926 11.741 6.38926 12.2802 5.81722V5.76619C11.741 5.19415 11.2332 5.19415 10.7568 5.76619V5.81722Z" stroke="#FFAE1F" stroke-width="0.5" stroke-miterlimit="10"/>
<path d="M13.5576 5.81722C14.034 6.38926 14.5418 6.38926 15.0809 5.81722V5.76619C14.5418 5.19415 14.034 5.19415 13.5576 5.76619V5.81722Z" stroke="#FFAE1F" stroke-width="0.5" stroke-miterlimit="10"/>
</g>
<defs>
<clipPath id="clip0_1059_2">
<rect width="17" height="20" fill="white"/>
</clipPath>
</defs>
</svg>
