<?xml version="1.0" encoding="UTF-8"?>
<svg id="Layer_1" data-name="Layer 1" xmlns="http://www.w3.org/2000/svg" width="126.48" height="30" viewBox="0 0 126.48 30">
  <defs>
    <style>
      .cls-1 {
        fill: #f4f4f4;
      }

      .cls-1, .cls-2, .cls-3 {
        fill-rule: evenodd;
      }

      .cls-2 {
        fill: #a2a2a2;
      }

      .cls-4 {
        fill: #fff;
      }

      .cls-5 {
        fill: none;
        stroke: #f89420;
        stroke-miterlimit: 10;
      }

      .cls-3 {
        fill: #909090;
      }
    </style>
  </defs>
  <line class="cls-5" x1="62" x2="62" y2="30"/>
  <g>
    <path class="cls-4" d="M74.12,9.89c0,.7-.09,1.29-.27,1.78s-.44.9-.78,1.21-.75.54-1.24.69-1.07.22-1.74.22h-1.81c-.13,0-.24-.04-.33-.11s-.13-.2-.13-.37v-6.61c0-.17.04-.3.13-.37s.2-.11.33-.11h1.95c.68,0,1.25.08,1.72.24s.87.39,1.19.7.57.69.74,1.15.25.99.25,1.59ZM72.53,9.94c0-.36-.04-.69-.13-1s-.22-.58-.4-.8-.42-.4-.71-.53-.67-.19-1.15-.19h-.78v5.16h.8c.42,0,.78-.05,1.07-.16s.53-.27.72-.5.34-.5.43-.82.14-.71.14-1.15Z"/>
    <path class="cls-4" d="M79.76,13.61c0,.05-.02.1-.06.13s-.1.05-.18.07-.21.02-.37.02c-.18,0-.3,0-.38-.02s-.14-.04-.17-.07-.05-.07-.05-.13v-.42c-.21.23-.46.41-.74.54s-.58.19-.92.19c-.28,0-.53-.04-.76-.11s-.43-.18-.6-.32-.3-.32-.4-.53-.14-.46-.14-.74c0-.3.06-.57.18-.79s.3-.41.53-.56.53-.25.88-.33.76-.11,1.22-.11h.51v-.32c0-.16-.02-.31-.05-.43s-.09-.23-.16-.31-.18-.14-.3-.18-.28-.06-.47-.06c-.25,0-.47.03-.66.08s-.36.12-.51.18-.27.13-.37.18-.18.08-.24.08c-.04,0-.08-.01-.11-.04s-.06-.07-.08-.12-.04-.11-.05-.19-.02-.16-.02-.25c0-.12,0-.22.03-.29s.06-.13.11-.19.15-.12.29-.19.3-.13.48-.19.38-.11.6-.14.44-.06.67-.06c.41,0,.76.04,1.05.12s.53.2.72.37.32.38.41.64.13.57.13.93v3.52ZM78.31,11.37h-.56c-.24,0-.44.02-.61.05s-.3.09-.41.16-.18.16-.23.25-.07.21-.07.34c0,.22.07.39.21.52s.33.19.58.19c.21,0,.4-.05.57-.16s.35-.26.53-.46v-.89Z"/>
    <path class="cls-4" d="M84.21,13.08c0,.17-.01.3-.03.4s-.05.16-.08.19-.09.07-.16.1-.15.05-.24.08-.19.04-.3.05-.22.02-.33.02c-.29,0-.55-.04-.76-.11s-.39-.19-.53-.34-.24-.35-.31-.58-.1-.51-.1-.83v-2.68h-.63c-.07,0-.13-.05-.17-.14s-.06-.25-.06-.46c0-.11,0-.21.01-.29s.02-.14.04-.18.04-.08.07-.1.06-.03.1-.03h.62v-1.17s.01-.07.03-.11.06-.06.12-.08.13-.04.23-.05.21-.01.35-.01.26,0,.36.01.17.03.23.05.09.05.12.08.04.07.04.11v1.17h1.14s.07,0,.1.03.05.05.07.1.03.11.04.18.01.17.01.29c0,.21-.02.37-.06.46s-.1.14-.17.14h-1.14v2.46c0,.29.04.5.13.64s.25.21.48.21c.08,0,.15,0,.21-.02s.12-.03.17-.05.09-.03.12-.05.06-.02.09-.02c.02,0,.05,0,.07.02s.04.04.05.08.02.1.03.17.01.16.01.27Z"/>
    <path class="cls-4" d="M89.61,13.61c0,.05-.02.1-.06.13s-.1.05-.18.07-.21.02-.37.02c-.18,0-.3,0-.38-.02s-.14-.04-.17-.07-.05-.07-.05-.13v-.42c-.21.23-.46.41-.74.54s-.58.19-.92.19c-.28,0-.53-.04-.76-.11s-.43-.18-.6-.32-.3-.32-.4-.53-.14-.46-.14-.74c0-.3.06-.57.18-.79s.3-.41.53-.56.53-.25.88-.33.76-.11,1.22-.11h.51v-.32c0-.16-.02-.31-.05-.43s-.09-.23-.16-.31-.18-.14-.3-.18-.28-.06-.47-.06c-.25,0-.47.03-.66.08s-.36.12-.51.18-.27.13-.37.18-.18.08-.24.08c-.04,0-.08-.01-.11-.04s-.06-.07-.08-.12-.04-.11-.05-.19-.02-.16-.02-.25c0-.12,0-.22.03-.29s.06-.13.11-.19.15-.12.29-.19.3-.13.48-.19.38-.11.6-.14.44-.06.67-.06c.41,0,.76.04,1.05.12s.53.2.72.37.32.38.41.64.13.57.13.93v3.52ZM88.16,11.37h-.56c-.24,0-.44.02-.61.05s-.3.09-.41.16-.18.16-.23.25-.07.21-.07.34c0,.22.07.39.21.52s.33.19.58.19c.21,0,.4-.05.57-.16s.35-.26.53-.46v-.89Z"/>
    <path class="cls-4" d="M74.65,19.91c0,.63-.08,1.19-.23,1.69s-.39.92-.7,1.26-.69.61-1.15.79-.98.27-1.58.27-1.1-.08-1.54-.23-.81-.39-1.1-.71-.51-.72-.66-1.21-.22-1.07-.22-1.73c0-.61.08-1.17.23-1.66s.39-.91.7-1.25.69-.61,1.15-.79.98-.28,1.58-.28,1.08.08,1.52.23.81.39,1.1.7.52.72.67,1.2.23,1.05.23,1.71ZM73.03,19.99c0-.4-.03-.76-.09-1.09s-.17-.61-.32-.84-.35-.41-.6-.54-.56-.19-.94-.19-.7.07-.95.21-.46.33-.62.57-.27.52-.33.83-.1.66-.1,1.01c0,.41.03.79.09,1.12s.17.61.32.85.35.41.6.54.56.18.94.18.7-.07.95-.21.46-.33.62-.57.27-.52.33-.85.1-.67.1-1.03Z"/>
    <path class="cls-4" d="M81.12,20.91c0,.46-.05.88-.15,1.25s-.25.69-.44.95-.43.46-.71.6-.6.21-.95.21c-.18,0-.34-.02-.49-.05s-.3-.09-.44-.16-.28-.17-.41-.28-.27-.25-.41-.41v.57s-.01.08-.03.11-.06.05-.11.07-.11.03-.2.04-.18.01-.3.01-.22,0-.3-.01-.14-.02-.19-.04-.08-.04-.1-.07-.03-.07-.03-.11v-7.71s.01-.07.04-.11.06-.06.12-.08.13-.04.23-.05.21-.02.36-.02.26,0,.36.02.17.03.23.05.1.05.12.08.04.07.04.11v2.89c.13-.13.27-.25.4-.34s.27-.17.4-.23.27-.1.41-.13.29-.04.45-.04c.39,0,.71.08.98.23s.49.36.66.62.29.57.37.92.12.72.12,1.1ZM79.59,21.01c0-.22-.02-.44-.05-.64s-.09-.39-.17-.55-.19-.29-.32-.38-.3-.14-.5-.14c-.1,0-.19.01-.29.04s-.19.07-.29.14-.2.15-.31.26-.22.24-.33.39v1.73c.21.27.41.47.59.61s.39.21.59.21c.19,0,.35-.05.49-.15s.24-.22.33-.38.15-.33.19-.53.06-.4.06-.6Z"/>
    <path class="cls-4" d="M85.38,16.37c0,.11,0,.2-.01.27s-.02.12-.04.16-.03.06-.05.08-.04.02-.06.02c-.03,0-.06,0-.09-.02s-.07-.03-.12-.04-.11-.03-.17-.04-.14-.02-.23-.02c-.11,0-.2.02-.27.05s-.14.09-.19.16-.09.17-.11.28-.04.26-.04.42v.48h.96s.07,0,.1.03.05.05.07.1.03.11.04.18.01.17.01.29c0,.21-.02.37-.06.46s-.1.14-.17.14h-.96v4.23s-.01.07-.04.1-.06.05-.12.07-.13.03-.23.04-.22.01-.36.01-.26,0-.35-.01-.17-.02-.23-.04-.1-.04-.12-.07-.03-.06-.03-.1v-4.23h-.66c-.07,0-.13-.05-.17-.14s-.06-.25-.06-.46c0-.11,0-.21.01-.29s.02-.14.04-.18.04-.08.07-.1.06-.03.1-.03h.65v-.44c0-.36.04-.67.11-.93s.18-.49.33-.67.34-.31.57-.4.51-.13.82-.13c.15,0,.3.01.43.04s.24.05.32.08.13.06.16.08.05.06.07.11.03.11.04.19.01.17.01.28Z"/>
    <path class="cls-4" d="M90.98,23.59s0,.07-.03.1-.05.05-.1.07-.11.03-.19.04-.18.01-.3.01c-.13,0-.23,0-.31-.01s-.14-.02-.19-.04-.08-.04-.1-.07-.03-.06-.03-.1v-.6c-.29.31-.58.55-.88.7s-.61.23-.93.23c-.36,0-.66-.06-.91-.18s-.44-.28-.59-.48-.26-.44-.32-.71-.1-.6-.1-1v-3.2s.01-.07.03-.1.06-.05.12-.07.13-.03.23-.04.21-.01.35-.01.26,0,.36.01.17.02.23.04.1.04.12.07.04.06.04.1v2.95c0,.27.02.48.05.63s.09.27.16.37.16.18.28.24.24.08.39.08c.19,0,.38-.07.57-.21s.39-.34.61-.6v-3.47s.01-.07.03-.1.06-.05.12-.07.13-.03.23-.04.21-.01.36-.01.26,0,.36.01.17.02.22.04.09.04.12.07.04.06.04.1v5.23Z"/>
    <path class="cls-4" d="M96.14,22.12c0,.3-.06.56-.17.79s-.27.42-.47.57-.44.27-.72.34-.58.11-.9.11c-.2,0-.38-.01-.56-.04s-.34-.07-.48-.11-.26-.09-.35-.14-.16-.09-.21-.13-.08-.11-.1-.19-.04-.22-.04-.39c0-.11,0-.2.01-.27s.02-.12.04-.16.04-.07.06-.08.05-.02.09-.02c.04,0,.11.02.19.07s.19.1.31.16.27.11.44.16.35.08.57.08c.13,0,.25-.01.35-.04s.19-.07.27-.12.13-.12.17-.19.06-.17.06-.27c0-.12-.04-.22-.11-.3s-.17-.16-.29-.22-.25-.12-.4-.18-.3-.12-.46-.18-.31-.14-.46-.23-.29-.19-.4-.32-.21-.28-.29-.45-.11-.39-.11-.63.05-.48.15-.69.24-.39.42-.54.41-.26.67-.35.56-.12.89-.12c.16,0,.32.01.48.04s.29.05.42.09.23.07.32.11.15.08.18.11.06.06.08.09.03.06.04.11.01.09.02.15,0,.14,0,.23c0,.11,0,.19,0,.26s-.02.12-.03.16-.03.07-.06.08-.05.02-.08.02c-.04,0-.09-.02-.16-.06s-.17-.08-.28-.13-.24-.09-.39-.13-.31-.06-.5-.06c-.13,0-.25.01-.35.04s-.18.07-.24.12-.11.11-.14.18-.05.14-.05.22c0,.12.04.22.11.3s.17.15.29.22.26.12.41.18.31.11.47.18.31.14.47.23.29.19.41.32.22.27.29.45.11.38.11.62Z"/>
    <path class="cls-4" d="M101.21,22.76c0,.1,0,.19,0,.25s-.01.13-.02.17-.02.08-.04.11-.04.07-.09.11-.13.1-.24.16-.24.12-.39.17-.3.09-.47.12-.34.05-.52.05c-.4,0-.76-.06-1.07-.19s-.57-.31-.78-.55-.37-.54-.48-.89-.16-.75-.16-1.21c0-.52.07-.98.2-1.36s.31-.7.55-.95.51-.44.83-.56.67-.18,1.05-.18c.16,0,.31.01.46.04s.29.06.42.11.25.1.35.16.18.11.22.15.07.08.09.11.03.07.04.11.02.1.02.17,0,.15,0,.25c0,.23-.02.39-.06.48s-.09.14-.15.14c-.07,0-.14-.03-.21-.08s-.16-.12-.26-.18-.22-.13-.36-.18-.31-.08-.5-.08c-.38,0-.68.15-.88.44s-.3.73-.3,1.3c0,.28.03.53.08.74s.13.39.23.54.22.25.38.33.33.11.52.11.38-.03.52-.09.27-.13.38-.2.2-.14.28-.2.14-.09.19-.09c.04,0,.06,0,.09.03s.04.06.06.11.02.12.03.2.01.19.01.32Z"/>
    <path class="cls-4" d="M106.66,23.61c0,.05-.02.1-.06.13s-.1.05-.18.07-.21.02-.37.02c-.18,0-.3,0-.38-.02s-.14-.04-.17-.07-.05-.07-.05-.13v-.42c-.21.23-.46.41-.74.54s-.58.19-.92.19c-.28,0-.53-.04-.76-.11s-.43-.18-.6-.32-.3-.32-.4-.53-.14-.46-.14-.74c0-.3.06-.57.18-.79s.3-.41.53-.56.53-.25.88-.33.76-.11,1.22-.11h.51v-.32c0-.16-.02-.31-.05-.43s-.09-.23-.16-.31-.18-.14-.3-.18-.28-.06-.47-.06c-.25,0-.47.03-.66.08s-.36.12-.51.18-.27.13-.37.18-.18.08-.24.08c-.04,0-.08-.01-.11-.04s-.06-.07-.08-.12-.04-.11-.05-.19-.02-.16-.02-.25c0-.12,0-.22.03-.29s.06-.13.11-.19.15-.12.29-.19.3-.13.48-.19.38-.11.6-.14.44-.06.67-.06c.41,0,.76.04,1.05.12s.53.2.72.37.32.38.41.64.13.57.13.93v3.52ZM105.21,21.37h-.56c-.24,0-.44.02-.61.05s-.3.09-.41.16-.18.16-.23.25-.07.21-.07.34c0,.22.07.39.21.52s.33.19.58.19c.21,0,.4-.05.57-.16s.35-.26.53-.46v-.89Z"/>
    <path class="cls-4" d="M113.12,18.17c.16,0,.28.04.34.11s.1.17.1.3v5.02s-.01.07-.04.1-.06.05-.12.07-.13.03-.23.04-.21.01-.35.01-.26,0-.36-.01-.17-.02-.23-.04-.09-.04-.12-.07-.04-.06-.04-.1v-4.23h-2.35v2.46c0,.29.04.5.13.64s.25.21.48.21c.08,0,.15,0,.21-.02s.12-.03.17-.05.09-.03.12-.05.06-.02.09-.02c.02,0,.05,0,.07.02s.04.04.05.08.02.1.03.17.01.16.01.27c0,.17,0,.3-.03.39s-.05.15-.08.19-.09.08-.16.11-.15.05-.24.08-.19.04-.3.05-.22.02-.33.02c-.29,0-.55-.04-.76-.11s-.39-.19-.53-.34-.24-.35-.31-.58-.1-.51-.1-.83v-2.68h-.63c-.07,0-.13-.05-.17-.14s-.06-.25-.06-.46c0-.11,0-.21.01-.29s.02-.14.04-.18.04-.08.07-.1.06-.03.1-.03h.62v-1.17s.01-.07.03-.11.06-.06.12-.08.13-.04.23-.05.21-.01.35-.01.26,0,.36.01.17.03.23.05.09.05.12.08.04.07.04.11v1.17h3.38ZM113.68,16.6c0,.3-.06.5-.18.62s-.35.17-.67.17-.56-.05-.67-.16-.17-.31-.17-.59.06-.5.18-.62.34-.17.68-.17.55.06.67.17.18.31.18.59Z"/>
    <path class="cls-4" d="M120.33,20.93c0,.45-.06.85-.18,1.22s-.29.68-.53.95-.54.47-.9.62-.78.22-1.26.22-.87-.06-1.21-.19-.63-.32-.86-.56-.39-.55-.5-.91-.16-.77-.16-1.23.06-.85.18-1.22.3-.69.54-.95.54-.47.89-.61.78-.22,1.26-.22.88.06,1.22.19.63.31.85.56.39.55.5.91.16.77.16,1.24ZM118.81,20.98c0-.26-.02-.5-.06-.71s-.11-.41-.21-.57-.23-.29-.39-.38-.37-.13-.61-.13c-.22,0-.41.04-.57.12s-.3.2-.4.35-.18.34-.24.56-.08.46-.08.74c0,.26.02.5.06.71s.11.41.21.57.23.28.39.37.37.13.61.13c.22,0,.42-.04.58-.12s.3-.2.4-.35.18-.34.23-.55.08-.46.08-.74Z"/>
    <path class="cls-4" d="M126.48,23.59s-.01.07-.04.1-.06.05-.12.07-.13.03-.23.04-.21.01-.35.01-.26,0-.36-.01-.17-.02-.23-.04-.09-.04-.12-.07-.04-.06-.04-.1v-2.98c0-.25-.02-.45-.06-.6s-.09-.27-.16-.37-.16-.18-.27-.24-.24-.08-.39-.08c-.19,0-.38.07-.57.21s-.39.34-.6.6v3.47s-.01.07-.04.1-.06.05-.12.07-.13.03-.23.04-.21.01-.36.01-.26,0-.36-.01-.17-.02-.23-.04-.1-.04-.12-.07-.04-.06-.04-.1v-5.23s0-.07.03-.1.05-.05.11-.07.12-.03.2-.04.18-.01.3-.01.23,0,.31.01.15.02.19.04.08.04.1.07.03.06.03.1v.6c.29-.31.58-.55.88-.7s.61-.23.93-.23c.36,0,.66.06.9.18s.44.28.59.48.26.44.33.71.1.59.1.97v3.23Z"/>
  </g>
  <g>
    <polygon class="cls-2" points="4.78 5 25.07 5 19.42 10.67 10.43 10.64 10.4 25 4.78 25 4.78 5 4.78 5"/>
    <polygon class="cls-3" points="15.83 10.66 25.07 5 19.42 10.67 17.3 10.66 15.83 10.66"/>
    <polygon class="cls-3" points="4.78 19.49 10.42 16.6 4.78 21.32 4.78 19.49 4.78 19.49"/>
    <polygon class="cls-2" points="28.3 5 33.92 5 33.92 24.1 28.3 25 28.3 5 28.3 5"/>
    <polygon class="cls-1" points="28.3 25 43.14 5 57.18 25 49.22 25 42.98 15.63 36.39 25 28.3 25 28.3 25"/>
    <polygon class="cls-1" points="12.63 14.92 25.07 5 25.07 12.89 20.81 16 28.3 25 20.86 25 12.63 14.92 12.63 14.92"/>
    <polygon class="cls-1" points="0 25 10.42 16.6 10.4 25 0 25 0 25"/>
    <polygon class="cls-3" points="28.3 22.5 33.92 17.42 28.3 25 28.3 22.84 28.3 22.5"/>
  </g>
</svg>