<svg width="15" height="15" viewBox="0 0 15 15" fill="none" xmlns="http://www.w3.org/2000/svg">
<g clip-path="url(#clip0_291_612)">
<path d="M14.4506 5.6611L9.71001 0.925798C9.12328 0.341525 8.32855 0.0134277 7.50001 0.0134277C6.67147 0.0134277 5.87673 0.341525 5.29001 0.925798L0.549383 5.6611C0.374648 5.8345 0.236114 6.04081 0.141809 6.26808C0.0475045 6.49535 -0.000694 6.73905 7.54968e-06 6.98506V13.113C7.54968e-06 13.6096 0.197552 14.086 0.549182 14.4371C0.900813 14.7883 1.37773 14.9856 1.87501 14.9856H13.125C13.6223 14.9856 14.0992 14.7883 14.4508 14.4371C14.8025 14.086 15 13.6096 15 13.113V6.98506C15.0007 6.73905 14.9525 6.49535 14.8582 6.26808C14.7639 6.04081 14.6254 5.8345 14.4506 5.6611ZM9.37501 13.7372H5.62501V11.2815C5.62501 10.7849 5.82255 10.3086 6.17418 9.95738C6.52581 9.60619 7.00273 9.40889 7.50001 9.40889C7.99729 9.40889 8.4742 9.60619 8.82583 9.95738C9.17746 10.3086 9.37501 10.7849 9.37501 11.2815V13.7372ZM13.75 13.113C13.75 13.2785 13.6842 13.4373 13.5669 13.5544C13.4497 13.6714 13.2908 13.7372 13.125 13.7372H10.625V11.2815C10.625 10.4538 10.2958 9.65992 9.70972 9.0746C9.12366 8.48929 8.32881 8.16046 7.50001 8.16046C6.67121 8.16046 5.87635 8.48929 5.2903 9.0746C4.70425 9.65992 4.37501 10.4538 4.37501 11.2815V13.7372H1.87501C1.70925 13.7372 1.55028 13.6714 1.43307 13.5544C1.31586 13.4373 1.25001 13.2785 1.25001 13.113V6.98506C1.25059 6.81963 1.31638 6.66108 1.43313 6.54374L6.17376 1.81031C6.52607 1.46008 7.00292 1.26346 7.50001 1.26346C7.99709 1.26346 8.47394 1.46008 8.82626 1.81031L13.5669 6.54561C13.6832 6.66249 13.7489 6.82028 13.75 6.98506V13.113Z" fill="white"/>
</g>
<defs>
<clipPath id="clip0_291_612">
<rect width="15" height="14.9812" fill="white"/>
</clipPath>
</defs>
</svg>
