<svg width="15" height="15" viewBox="0 0 15 15" fill="none" xmlns="http://www.w3.org/2000/svg">
<g clip-path="url(#clip0_291_1417)">
<path d="M14.4506 5.66098L9.71001 0.925676C9.12328 0.341403 8.32855 0.0133057 7.50001 0.0133057C6.67147 0.0133057 5.87673 0.341403 5.29001 0.925676L0.549383 5.66098C0.374648 5.83437 0.236114 6.04069 0.141809 6.26796C0.0475045 6.49522 -0.000694 6.73893 7.54968e-06 6.98494V13.1129C7.54968e-06 13.6095 0.197552 14.0858 0.549182 14.437C0.900813 14.7882 1.37773 14.9855 1.87501 14.9855H13.125C13.6223 14.9855 14.0992 14.7882 14.4508 14.437C14.8025 14.0858 15 13.6095 15 13.1129V6.98494C15.0007 6.73893 14.9525 6.49522 14.8582 6.26796C14.7639 6.04069 14.6254 5.83437 14.4506 5.66098ZM9.37501 13.7371H5.62501V11.2814C5.62501 10.7848 5.82255 10.3084 6.17418 9.95725C6.52581 9.60606 7.00273 9.40877 7.50001 9.40877C7.99729 9.40877 8.4742 9.60606 8.82583 9.95725C9.17746 10.3084 9.37501 10.7848 9.37501 11.2814V13.7371ZM13.75 13.1129C13.75 13.2784 13.6842 13.4372 13.5669 13.5543C13.4497 13.6713 13.2908 13.7371 13.125 13.7371H10.625V11.2814C10.625 10.4537 10.2958 9.6598 9.70972 9.07448C9.12366 8.48916 8.32881 8.16034 7.50001 8.16034C6.67121 8.16034 5.87635 8.48916 5.2903 9.07448C4.70425 9.6598 4.37501 10.4537 4.37501 11.2814V13.7371H1.87501C1.70925 13.7371 1.55028 13.6713 1.43307 13.5543C1.31586 13.4372 1.25001 13.2784 1.25001 13.1129V6.98494C1.25059 6.81951 1.31638 6.66096 1.43313 6.54362L6.17376 1.81019C6.52607 1.45996 7.00292 1.26334 7.50001 1.26334C7.99709 1.26334 8.47394 1.45996 8.82626 1.81019L13.5669 6.54549C13.6832 6.66237 13.7489 6.82016 13.75 6.98494V13.1129Z" fill="white"/>
</g>
<defs>
<clipPath id="clip0_291_1417">
<rect width="15" height="14.9812" fill="white"/>
</clipPath>
</defs>
</svg>
