<?xml version="1.0" standalone="no"?>
<!DOCTYPE svg PUBLIC "-//W3C//DTD SVG 20010904//EN"
 "http://www.w3.org/TR/2001/REC-SVG-20010904/DTD/svg10.dtd">
<svg version="1.0" xmlns="http://www.w3.org/2000/svg"
 width="532.000000pt" height="472.000000pt" viewBox="0 0 532.000000 472.000000"
 preserveAspectRatio="xMidYMid meet">
<metadata>
Created by potrace 1.16, written by Peter Selinger 2001-2019
</metadata>
<g transform="translate(0.000000,472.000000) scale(0.100000,-0.100000)"
fill="#000000" stroke="none">
<path d="M1640 4258 c-233 -16 -502 -70 -617 -124 -74 -36 -130 -87 -143 -132
-14 -52 -14 -1761 1 -1799 15 -39 55 -79 115 -114 48 -27 225 -79 322 -94 l42
-7 0 54 0 54 -117 27 c-117 27 -211 63 -245 94 -16 14 -18 39 -18 230 0 117 4
213 8 213 5 0 37 -12 73 -26 56 -23 253 -74 287 -74 8 0 12 17 12 54 l0 55
-57 11 c-148 30 -237 60 -294 101 l-29 20 0 215 c0 123 4 214 9 214 5 0 30 -9
56 -20 46 -20 203 -63 278 -76 l37 -6 0 54 0 55 -82 17 c-111 24 -241 72 -272
101 l-26 24 0 214 c0 117 2 216 5 219 3 3 36 -7 73 -22 225 -92 714 -140 1098
-110 254 21 445 55 577 104 l87 33 0 -63 0 -64 55 0 55 0 0 155 c0 201 -9 220
-145 288 -199 99 -712 155 -1145 125z m499 -108 c318 -22 597 -87 660 -154 30
-31 20 -49 -49 -85 -97 -52 -325 -100 -575 -121 -450 -37 -1013 33 -1163 147
-43 32 -32 52 51 92 197 98 659 149 1076 121z"/>
<path d="M2800 3604 c-84 -23 -131 -60 -250 -195 -60 -68 -110 -126 -110 -129
0 -3 57 -84 128 -180 117 -161 132 -177 185 -204 46 -24 71 -30 120 -29 78 0
115 16 201 87 87 71 104 72 181 5 80 -69 135 -92 212 -93 49 0 74 6 119 30 52
27 68 44 186 206 l130 178 -105 117 c-133 150 -140 156 -212 190 l-60 28 -335
2 c-273 2 -345 0 -390 -13z m728 -99 c44 -13 64 -29 146 -117 53 -57 96 -106
96 -111 0 -14 -171 -250 -199 -275 -69 -60 -155 -49 -248 30 -82 70 -107 81
-169 76 -47 -4 -61 -11 -133 -70 -87 -72 -126 -86 -190 -68 -49 13 -79 42
-167 164 -112 156 -109 131 -25 227 87 99 117 125 168 144 58 21 649 21 721 0z"/>
<path d="M2855 3336 c-16 -7 -41 -26 -55 -40 -23 -25 -24 -29 -10 -54 48 -84
201 -88 254 -7 16 24 16 28 1 51 -38 58 -122 80 -190 50z"/>
<path d="M3355 3336 c-16 -7 -41 -26 -55 -40 -23 -25 -24 -29 -10 -54 36 -64
143 -86 211 -44 52 31 64 64 37 98 -40 50 -121 68 -183 40z"/>
<path d="M1480 2155 l0 -1285 1015 0 1015 0 0 950 0 950 -32 0 c-18 0 -43 3
-55 6 l-23 6 0 -896 0 -896 -900 0 -900 0 0 1170 0 1170 379 0 378 0 47 50
c25 27 46 52 46 55 0 3 -218 5 -485 5 l-485 0 0 -1285z"/>
<path d="M2570 2695 l0 -75 340 0 340 0 0 75 0 75 -340 0 -340 0 0 -75z"/>
<path d="M2570 2400 l0 -80 338 2 337 3 3 78 3 77 -341 0 -340 0 0 -80z"/>
<path d="M2570 2105 l0 -75 340 0 340 0 0 75 0 75 -340 0 -340 0 0 -75z"/>
<path d="M2570 1810 l0 -80 340 0 340 0 0 80 0 80 -340 0 -340 0 0 -80z"/>
<path d="M2570 1515 l0 -75 340 0 340 0 0 75 0 75 -340 0 -340 0 0 -75z"/>
<path d="M2572 1223 l3 -78 335 0 335 0 3 78 3 77 -341 0 -341 0 3 -77z"/>
<path d="M1480 756 c0 -19 12 -31 54 -55 l53 -31 906 0 907 0 55 27 c47 23 55
31 55 55 l0 28 -1015 0 -1015 0 0 -24z"/>
</g>
</svg>
