<svg width="35" height="35" viewBox="0 0 35 35" fill="none" xmlns="http://www.w3.org/2000/svg">
<g clip-path="url(#clip0_200_6)">
<path d="M4.375 13.125C4.375 12.3515 4.68229 11.6096 5.22927 11.0626C5.77625 10.5156 6.51812 10.2083 7.29167 10.2083H27.7083C28.4819 10.2083 29.2237 10.5156 29.7707 11.0626C30.3177 11.6096 30.625 12.3515 30.625 13.125V26.25C30.625 27.0236 30.3177 27.7654 29.7707 28.3124C29.2237 28.8594 28.4819 29.1667 27.7083 29.1667H7.29167C6.51812 29.1667 5.77625 28.8594 5.22927 28.3124C4.68229 27.7654 4.375 27.0236 4.375 26.25V13.125Z" stroke="#2B2C2D" stroke-width="2" stroke-linecap="round" stroke-linejoin="round"/>
<path d="M11.6667 10.2083V7.29167C11.6667 6.51812 11.974 5.77625 12.5209 5.22927C13.0679 4.68229 13.8098 4.375 14.5833 4.375H20.4167C21.1902 4.375 21.9321 4.68229 22.4791 5.22927C23.026 5.77625 23.3333 6.51812 23.3333 7.29167V10.2083" stroke="#2B2C2D" stroke-width="2" stroke-linecap="round" stroke-linejoin="round"/>
</g>
<defs>
<clipPath id="clip0_200_6">
<rect width="35" height="35" fill="white"/>
</clipPath>
</defs>
</svg>
